<?xml version="1.0" encoding="utf-8"?>
<!-- Generator: Adobe Illustrator 24.0.1, SVG Export Plug-In . SVG Version: 6.00 Build 0)  -->
<svg version="1.1" id="Calque_1" xmlns="http://www.w3.org/2000/svg" xmlns:xlink="http://www.w3.org/1999/xlink" x="0px" y="0px"
	 viewBox="0 0 850.4 589" style="enable-background:new 0 0 850.4 589; filter:url(#shadow);" xml:space="preserve">
  <defs>
    <filter id="shadow" height="130%">
      <feGaussianBlur in="SourceAlpha" stdDeviation="4"/> <!-- stdDeviation is how much to blur -->
        <feOffset dx="2.5" dy="-2.5" result="offsetblur"/> <!-- how much to offset -->
        <feComponentTransfer>
          <feFuncA type="linear" slope="1"/> <!-- slope is the opacity of the shadow -->
        </feComponentTransfer>
        <feMerge>
        <feMergeNode/> <!-- this contains the offset blurred image -->
          <feMergeNode in="SourceGraphic"/> <!-- this contains the element that the filter is applied to -->
        </feMerge>
    </filter>
  </defs>
<style type="text/css">
	.st0{display:none;}
	.st1{display:inline;fill:#D9DADB;}
	.st2{fill:#FFFFFF;}
	.st3{fill:#DC002E;}
	.st4{fill:#004C93;}
	.st5{fill:#004D93;}
	.st6{fill:#004E94;}
	.st7{fill:#004F95;}
	.st8{fill:#005095;}
	.st9{fill:#005096;}
	.st10{fill:#005196;}
	.st11{fill:#005297;}
	.st12{fill:#005397;}
	.st13{fill:#005398;}
	.st14{fill:#005498;}
	.st15{fill:#005599;}
	.st16{fill:#005699;}
	.st17{fill:#00569A;}
	.st18{fill:#00579A;}
	.st19{fill:#00589B;}
	.st20{fill:#00599B;}
	.st21{fill:#00599C;}
	.st22{fill:#035A9C;}
	.st23{fill:#085A9C;}
	.st24{fill:#0C5B9D;}
	.st25{fill:#105B9D;}
	.st26{fill:#135C9E;}
	.st27{fill:#155C9E;}
	.st28{fill:#185D9E;}
	.st29{fill:#1A5D9F;}
	.st30{fill:#1D5E9F;}
	.st31{fill:#1F5E9F;}
	.st32{fill:#215FA0;}
	.st33{fill:#2260A0;}
	.st34{fill:#2460A0;}
	.st35{fill:#2661A1;}
	.st36{fill:#2861A1;}
	.st37{fill:#2962A2;}
	.st38{fill:#2B62A2;}
	.st39{fill:#2C63A2;}
	.st40{fill:#2E63A3;}
	.st41{fill:#2F64A3;}
	.st42{fill:#3165A3;}
	.st43{fill:#3265A4;}
	.st44{fill:#3366A4;}
	.st45{fill:#3566A5;}
	.st46{fill:#3667A5;}
	.st47{fill:#3767A5;}
	.st48{fill:#3968A6;}
	.st49{fill:#3A69A6;}
	.st50{fill:#3B69A7;}
	.st51{fill:#3C6AA7;}
	.st52{fill:#3E6AA7;}
	.st53{fill:#3F6BA8;}
	.st54{fill:#406CA8;}
	.st55{fill:#416CA9;}
	.st56{fill:#436DA9;}
	.st57{fill:#446DA9;}
	.st58{fill:#456EAA;}
	.st59{fill:#466FAA;}
	.st60{fill:#476FAB;}
	.st61{fill:#4870AB;}
	.st62{fill:#4A70AB;}
	.st63{fill:#4B71AC;}
	.st64{fill:#4C72AC;}
	.st65{fill:#4D72AD;}
	.st66{fill:#4E73AD;}
	.st67{fill:#4F74AD;}
	.st68{fill:#5074AE;}
	.st69{fill:#5175AE;}
	.st70{fill:#5276AF;}
	.st71{fill:#5376AF;}
	.st72{fill:#5577AF;}
	.st73{fill:#5677B0;}
	.st74{fill:#5778B0;}
	.st75{fill:#5879B1;}
	.st76{fill:#5979B1;}
	.st77{fill:#5A7AB2;}
	.st78{fill:#5B7BB2;}
	.st79{fill:#5C7BB2;}
	.st80{fill:#5D7CB3;}
	.st81{fill:#5E7DB3;}
	.st82{fill:#5F7DB4;}
	.st83{fill:#607EB4;}
	.st84{fill:#617FB4;}
	.st85{fill:#627FB5;}
	.st86{fill:#6380B5;}
	.st87{fill:#6481B6;}
	.st88{fill:#6581B6;}
	.st89{fill:#6682B7;}
	.st90{fill:#6783B7;}
	.st91{fill:#6883B7;}
	.st92{fill:#6984B8;}
	.st93{fill:#6A85B8;}
	.st94{fill:#6B86B9;}
	.st95{fill:#6C86B9;}
	.st96{fill:#6D87BA;}
</style>
<g id="Calque_2_1_" class="st0">
	<rect x="116.9" y="335" class="st1" width="342.7" height="254"/>
</g>
<g id="Calque_1_1_">
	<g>
		<path class="st2" d="M758.4,555.9V96l-0.1-0.1c-0.1-34.7-17-62.9-83.1-62.9l0,0h-16.2c-445.3,0-616,212.3-616,522.9H758.4z"/>
		<g>
			<path class="st3" d="M379.7,228.8c3.7,11.1,12.4,17.3,22.2,15.5c8.2-1.5,12.5-8.7,12.9-20.8c0.4-11.6-10.5-22.5-23.3-19.6
				C381.8,206.2,375.1,215.1,379.7,228.8z"/>
		</g>
		<g>
			<path class="st4" d="M288.1,197.2c13.4-36.3,58.8-70,127.5-41.3c16.8,7,20.7,21.1,18.2,30.1c-2.9,10.4-16.7,13.9-27.1,11.2
				c-55.4-14-85.5-7.4-96.2,16.1c-14,30.7,6.8,72.9,59.3,95.1c25.1,10.6,51,14,72.8,11.3c9.6,0.5,16.4,12.2,5.8,14.7
				c-24.6,3-54-1.7-83.6-14.2C302.4,294,272,240.7,288.1,197.2z"/>
		</g>
		<g>
			<g>
				<path class="st4" d="M399.8,156.2c-17.9-4.2-49.2-1.7-52.8,5.8c-3,6.3,17.8,14.7,38.2,20.4c25.2,7,38.2,6.5,42.1-3.6
					C430.3,171.1,422.1,161.4,399.8,156.2z"/>
				<path class="st5" d="M399.8,156.3c-17.8-4.1-48.9-1.7-52.4,5.8c-2.9,6.3,17.7,14.6,38,20.3c25.1,7,38,6.5,41.9-3.6
					C430.2,171.1,422,161.4,399.8,156.3z"/>
				<path class="st5" d="M399.9,156.3c-17.7-4.1-48.6-1.7-52.1,5.8c-2.9,6.2,17.5,14.6,37.7,20.2c24.9,7,37.8,6.5,41.7-3.6
					C430.1,171.1,422,161.5,399.9,156.3z"/>
				<path class="st6" d="M400,156.4c-17.6-4.1-48.2-1.7-51.7,5.8c-2.9,6.2,17.4,14.5,37.4,20.1c24.7,6.9,37.6,6.4,41.5-3.6
					C430,171.1,421.9,161.5,400,156.4z"/>
				<path class="st6" d="M400,156.5c-17.5-4.1-47.9-1.7-51.4,5.7c-2.9,6.2,17.2,14.4,37.1,20c24.5,6.9,37.4,6.4,41.2-3.6
					C429.9,171.1,421.8,161.6,400,156.5z"/>
				<path class="st6" d="M400.1,156.6c-17.4-4-47.5-1.7-51,5.7c-2.9,6.1,17,14.3,36.8,19.9c24.4,6.8,37.2,6.3,41-3.6
					C429.8,171.1,421.8,161.6,400.1,156.6z"/>
				<path class="st7" d="M400.1,156.7c-17.3-4-47.2-1.7-50.7,5.7c-2.9,6.1,16.9,14.3,36.5,19.8c24.2,6.8,37,6.3,40.8-3.6
					C429.7,171.1,421.7,161.7,400.1,156.7z"/>
				<path class="st7" d="M400.2,156.8c-17.2-4-46.9-1.6-50.3,5.7c-2.9,6.1,16.7,14.2,36.2,19.7c24,6.8,36.8,6.3,40.6-3.6
					C429.6,171.1,421.6,161.8,400.2,156.8z"/>
				<path class="st8" d="M400.2,156.9c-17.1-4-46.5-1.6-49.9,5.7c-2.9,6.1,16.6,14.1,36,19.6c23.8,6.8,36.6,6.2,40.3-3.6
					C429.4,171.1,421.6,161.8,400.2,156.9z"/>
				<path class="st9" d="M400.3,156.9c-17-3.9-46.2-1.6-49.6,5.6c-2.8,6,16.4,14,35.7,19.5c23.7,6.7,36.3,6.2,40.1-3.6
					C429.3,171.1,421.5,161.9,400.3,156.9z"/>
				<path class="st10" d="M400.3,157c-16.9-3.9-45.8-1.6-49.2,5.6c-2.8,6,16.3,14,35.4,19.4c23.5,6.7,36.1,6.2,39.9-3.6
					C429.2,171.2,421.5,161.9,400.3,157z"/>
				<path class="st10" d="M400.4,157.1c-16.8-3.9-45.5-1.6-48.9,5.6c-2.8,6,16.1,13.9,35.1,19.3c23.3,6.6,35.9,6.1,39.6-3.5
					C429.1,171.2,421.4,162,400.4,157.1z"/>
				<path class="st11" d="M400.5,157.2c-16.7-3.9-45.1-1.6-48.5,5.6c-2.8,5.9,15.9,13.8,34.8,19.3c23.1,6.6,35.7,6.1,39.4-3.5
					C429,171.2,421.3,162,400.5,157.2z"/>
				<path class="st11" d="M400.5,157.3c-16.6-3.9-44.8-1.6-48.1,5.6c-2.8,5.9,15.8,13.8,34.5,19.2c22.9,6.6,35.5,6,39.2-3.5
					C428.9,171.2,421.2,162.1,400.5,157.3z"/>
				<path class="st12" d="M400.6,157.4c-16.5-3.8-44.5-1.5-47.8,5.5c-2.8,5.9,15.6,13.7,34.2,19.1c22.8,6.5,35.3,6,39-3.5
					C428.8,171.2,421.2,162.1,400.6,157.4z"/>
				<path class="st13" d="M400.6,157.4c-16.4-3.8-44.1-1.5-47.4,5.5c-2.8,5.9,15.5,13.6,33.9,19c22.6,6.5,35.1,6,38.7-3.5
					C428.7,171.2,421.1,162.2,400.6,157.4z"/>
				<path class="st14" d="M400.7,157.5c-16.3-3.8-43.8-1.5-47.1,5.5c-2.7,5.8,15.3,13.5,33.7,18.9c22.4,6.5,34.9,5.9,38.5-3.5
					C428.5,171.2,421,162.3,400.7,157.5z"/>
				<path class="st14" d="M400.7,157.6c-16.2-3.8-43.5-1.5-46.7,5.5c-2.7,5.8,15.2,13.5,33.4,18.8c22.2,6.4,34.7,5.9,38.3-3.5
					C428.4,171.2,421,162.3,400.7,157.6z"/>
				<path class="st15" d="M400.8,157.7c-16.1-3.7-43.1-1.5-46.4,5.5c-2.7,5.8,15,13.4,33.1,18.7c22.1,6.4,34.5,5.8,38.1-3.5
					C428.3,171.2,420.9,162.4,400.8,157.7z"/>
				<path class="st15" d="M400.9,157.8c-16-3.7-42.8-1.5-46,5.4c-2.7,5.8,14.8,13.3,32.8,18.6c21.9,6.4,34.3,5.8,37.8-3.5
					C428.2,171.2,420.9,162.4,400.9,157.8z"/>
				<path class="st16" d="M400.9,157.9c-15.9-3.7-42.4-1.5-45.6,5.4c-2.7,5.7,14.7,13.2,32.5,18.5c21.7,6.3,34,5.8,37.6-3.5
					C428.1,171.3,420.8,162.5,400.9,157.9z"/>
				<path class="st17" d="M401,158c-15.8-3.7-42.1-1.4-45.3,5.4c-2.7,5.7,14.5,13.2,32.2,18.4c21.5,6.3,33.8,5.7,37.4-3.5
					C428,171.3,420.7,162.5,401,158z"/>
				<path class="st18" d="M401,158c-15.7-3.6-41.7-1.4-44.9,5.4c-2.7,5.7,14.4,13.1,31.9,18.3c21.3,6.3,33.6,5.7,37.1-3.5
					C427.9,171.3,420.6,162.6,401,158z"/>
				<path class="st18" d="M401.1,158.1c-15.6-3.6-41.4-1.4-44.6,5.4c-2.6,5.7,14.2,13,31.7,18.2c21.2,6.3,33.4,5.6,36.9-3.5
					C427.8,171.3,420.6,162.6,401.1,158.1z"/>
				<path class="st19" d="M401.2,158.2c-15.5-3.6-41.1-1.4-44.2,5.3c-2.6,5.6,14,13,31.4,18.1c21,6.2,33.2,5.6,36.7-3.5
					C427.6,171.3,420.5,162.7,401.2,158.2z"/>
				<path class="st19" d="M401.2,158.3c-15.4-3.6-40.7-1.4-43.8,5.3c-2.6,5.6,13.9,12.9,31.1,18c20.8,6.2,33,5.6,36.5-3.5
					C427.5,171.3,420.5,162.8,401.2,158.3z"/>
				<path class="st20" d="M401.3,158.4c-15.3-3.5-40.4-1.4-43.5,5.3c-2.6,5.6,13.7,12.8,30.8,17.9c20.6,6.2,32.8,5.5,36.2-3.5
					C427.4,171.3,420.4,162.8,401.3,158.4z"/>
				<path class="st21" d="M401.3,158.5c-15.2-3.5-40-1.4-43.1,5.3c-2.6,5.5,13.6,12.8,30.5,17.9c20.4,6.1,32.6,5.5,36-3.5
					C427.3,171.3,420.3,162.9,401.3,158.5z"/>
				<path class="st22" d="M401.4,158.6c-15.1-3.5-39.7-1.4-42.8,5.3c-2.6,5.5,13.4,12.7,30.2,17.8c20.3,6.1,32.4,5.4,35.8-3.4
					C427.2,171.3,420.3,162.9,401.4,158.6z"/>
				<path class="st23" d="M401.4,158.6c-15-3.5-39.3-1.4-42.4,5.3c-2.5,5.5,13.2,12.6,30,17.7c20.1,6.1,32.2,5.4,35.5-3.4
					C427.1,171.4,420.2,163,401.4,158.6z"/>
				<path class="st24" d="M401.5,158.7c-14.9-3.5-39-1.3-42,5.2c-2.5,5.5,13.1,12.6,29.7,17.6c19.9,6,31.9,5.4,35.3-3.4
					C427,171.4,420.1,163,401.5,158.7z"/>
				<path class="st25" d="M401.6,158.8c-14.8-3.4-38.7-1.3-41.7,5.2c-2.5,5.4,12.9,12.5,29.4,17.5c19.7,6,31.7,5.3,35.1-3.4
					C426.8,171.4,420.1,163.1,401.6,158.8z"/>
				<path class="st26" d="M401.6,158.9c-14.7-3.4-38.3-1.3-41.3,5.2c-2.5,5.4,12.8,12.4,29.1,17.4c19.5,6,31.5,5.3,34.8-3.4
					C426.7,171.4,420,163.1,401.6,158.9z"/>
				<path class="st27" d="M401.7,159c-14.6-3.4-38-1.3-41,5.2c-2.5,5.4,12.6,12.3,28.8,17.3c19.4,5.9,31.3,5.3,34.6-3.4
					C426.6,171.4,419.9,163.2,401.7,159z"/>
				<path class="st28" d="M401.7,159c-14.5-3.4-37.7-1.3-40.6,5.2c-2.5,5.3,12.5,12.2,28.5,17.2c19.2,5.9,31.1,5.2,34.4-3.4
					C426.5,171.4,419.9,163.3,401.7,159z"/>
				<path class="st29" d="M401.8,159.1c-14.5-3.4-37.3-1.3-40.3,5.1c-2.5,5.3,12.3,12.2,28.2,17.1c19,5.9,30.9,5.2,34.2-3.4
					C426.4,171.4,419.8,163.3,401.8,159.1z"/>
				<path class="st30" d="M401.8,159.2c-14.3-3.3-37-1.3-39.9,5.1c-2.4,5.3,12.1,12.1,27.9,17c18.8,5.8,30.7,5.1,33.9-3.4
					C426.3,171.4,419.7,163.4,401.8,159.2z"/>
				<path class="st31" d="M401.9,159.3c-14.2-3.3-36.6-1.2-39.5,5.1c-2.4,5.3,12,12,27.6,16.9c18.7,5.8,30.5,5.1,33.7-3.4
					C426.2,171.4,419.7,163.4,401.9,159.3z"/>
				<path class="st32" d="M401.9,159.4c-14.1-3.3-36.3-1.2-39.2,5.1c-2.4,5.2,11.8,12,27.4,16.8c18.5,5.8,30.3,5.1,33.5-3.4
					C426,171.4,419.6,163.5,401.9,159.4z"/>
				<path class="st33" d="M402,159.5c-14-3.3-35.9-1.2-38.8,5c-2.4,5.2,11.7,11.9,27.1,16.7c18.3,5.7,30.1,5,33.3-3.4
					C425.9,171.5,419.5,163.5,402,159.5z"/>
				<path class="st34" d="M402.1,159.5c-14-3.2-35.6-1.2-38.5,5c-2.4,5.2,11.5,11.8,26.8,16.6c18.1,5.7,29.9,5,33-3.4
					C425.8,171.5,419.5,163.6,402.1,159.5z"/>
				<path class="st35" d="M402.1,159.6c-13.9-3.2-35.3-1.2-38.1,5c-2.4,5.2,11.4,11.7,26.5,16.5c17.9,5.7,29.6,4.9,32.8-3.4
					C425.7,171.5,419.4,163.6,402.1,159.6z"/>
				<path class="st36" d="M402.2,159.7c-13.8-3.2-34.9-1.2-37.7,5c-2.4,5.1,11.2,11.7,26.2,16.4c17.8,5.6,29.4,4.9,32.6-3.4
					C425.6,171.5,419.3,163.7,402.2,159.7z"/>
				<path class="st37" d="M402.2,159.8c-13.7-3.2-34.6-1.2-37.4,5c-2.4,5.1,11,11.6,25.9,16.3c17.6,5.6,29.2,4.9,32.4-3.4
					C425.5,171.5,419.3,163.8,402.2,159.8z"/>
				<path class="st38" d="M402.3,159.9c-13.5-3.1-34.2-1.1-37,4.9c-2.3,5.1,10.9,11.5,25.6,16.2c17.4,5.6,29,4.8,32.1-3.4
					C425.4,171.5,419.2,163.8,402.3,159.9z"/>
				<path class="st39" d="M402.3,160c-13.5-3.1-33.9-1.1-36.7,4.9c-2.3,5,10.7,11.5,25.4,16.1c17.2,5.5,28.8,4.8,31.9-3.4
					C425.3,171.5,419.1,163.9,402.3,160z"/>
				<path class="st40" d="M402.4,160.1c-13.4-3.1-33.5-1.1-36.3,4.9c-2.3,5,10.6,11.4,25.1,16c17,5.5,28.6,4.8,31.7-3.4
					C425.1,171.5,419.1,163.9,402.4,160.1z"/>
				<path class="st41" d="M402.5,160.1c-13.3-3.1-33.2-1.1-36,4.9c-2.3,5,10.4,11.3,24.8,15.9c16.9,5.5,28.4,4.7,31.4-3.4
					C425,171.5,419,164,402.5,160.1z"/>
				<path class="st42" d="M402.5,160.2c-13.2-3-32.9-1.1-35.6,4.9c-2.3,5,10.2,11.2,24.5,15.9c16.7,5.4,28.2,4.7,31.2-3.4
					C424.9,171.6,419,164,402.5,160.2z"/>
				<path class="st43" d="M402.6,160.3c-13.1-3-32.5-1.1-35.2,4.8c-2.3,4.9,10.1,11.1,24.2,15.8c16.5,5.4,28,4.6,31-3.4
					C424.8,171.6,418.9,164.1,402.6,160.3z"/>
				<path class="st44" d="M402.6,160.4c-13-3-32.2-1.1-34.9,4.8c-2.2,4.9,9.9,11.1,23.9,15.7c16.3,5.4,27.8,4.6,30.8-3.3
					C424.7,171.6,418.8,164.1,402.6,160.4z"/>
				<path class="st45" d="M402.7,160.5c-12.9-3-31.9-1-34.5,4.8c-2.2,4.9,9.8,11,23.7,15.6c16.1,5.3,27.5,4.5,30.5-3.3
					C424.6,171.6,418.7,164.2,402.7,160.5z"/>
				<path class="st45" d="M402.7,160.6c-12.8-2.9-31.5-1-34.2,4.8c-2.2,4.8,9.6,10.9,23.4,15.5c16,5.3,27.3,4.5,30.3-3.3
					C424.5,171.6,418.7,164.3,402.7,160.6z"/>
				<path class="st46" d="M402.8,160.6c-12.7-2.9-31.2-1-33.8,4.8c-2.2,4.8,9.5,10.9,23.1,15.4c15.8,5.3,27.1,4.5,30.1-3.3
					C424.4,171.6,418.6,164.3,402.8,160.6z"/>
				<path class="st47" d="M402.9,160.7c-12.6-2.9-30.8-1-33.4,4.8c-2.2,4.8,9.3,10.8,22.8,15.3c15.6,5.2,26.9,4.4,29.8-3.3
					C424.2,171.6,418.6,164.4,402.9,160.7z"/>
				<path class="st48" d="M402.9,160.8c-12.5-2.9-30.5-1-33.1,4.7c-2.2,4.8,9.1,10.7,22.5,15.2c15.4,5.2,26.7,4.4,29.6-3.3
					C424.1,171.6,418.5,164.4,402.9,160.8z"/>
				<path class="st49" d="M403,160.9c-12.4-2.9-30.1-1-32.7,4.7c-2.2,4.8,9,10.6,22.2,15.1c15.3,5.2,26.5,4.3,29.4-3.3
					C424,171.6,418.4,164.5,403,160.9z"/>
				<path class="st50" d="M403,161c-12.3-2.8-29.8-1-32.4,4.7c-2.1,4.7,8.8,10.6,21.9,15c15.1,5.1,26.3,4.3,29.2-3.3
					C423.9,171.6,418.4,164.5,403,161z"/>
				<path class="st51" d="M403.1,161.1c-12.2-2.8-29.5-1-32,4.7c-2.1,4.7,8.7,10.5,21.6,14.9c14.9,5.1,26.1,4.3,28.9-3.3
					C423.8,171.6,418.3,164.6,403.1,161.1z"/>
				<path class="st52" d="M403.1,161.2c-12.1-2.8-29.1-1-31.7,4.7c-2.1,4.7,8.5,10.4,21.3,14.8c14.7,5.1,25.9,4.2,28.7-3.3
					C423.7,171.6,418.2,164.6,403.1,161.2z"/>
				<path class="st53" d="M403.2,161.2c-12-2.8-28.8-0.9-31.3,4.6c-2.1,4.6,8.3,10.3,21.1,14.7c14.5,5,25.7,4.2,28.5-3.3
					C423.6,171.7,418.1,164.7,403.2,161.2z"/>
				<path class="st54" d="M403.2,161.3c-11.9-2.7-28.4-0.9-30.9,4.6c-2.1,4.6,8.2,10.3,20.8,14.6c14.4,5,25.5,4.2,28.2-3.3
					C423.4,171.7,418.1,164.8,403.2,161.3z"/>
				<path class="st55" d="M403.3,161.4c-11.8-2.7-28.1-0.9-30.6,4.6c-2.1,4.6,8,10.2,20.5,14.5c14.2,4.9,25.2,4.1,28-3.3
					C423.3,171.7,418,164.8,403.3,161.4z"/>
				<path class="st56" d="M403.4,161.5c-11.7-2.7-27.8-0.9-30.2,4.6c-2,4.5,7.9,10.1,20.2,14.5c14,4.9,25.1,4.1,27.8-3.3
					C423.2,171.7,418,164.9,403.4,161.5z"/>
				<path class="st57" d="M403.4,161.6c-11.6-2.7-27.4-0.9-29.9,4.6c-2,4.5,7.7,10.1,19.9,14.4c13.8,4.9,24.8,4,27.5-3.3
					C423.1,171.7,417.9,164.9,403.4,161.6z"/>
				<path class="st58" d="M403.5,161.7c-11.5-2.7-27.1-0.9-29.5,4.5c-2,4.5,7.6,10,19.6,14.3c13.6,4.8,24.6,4,27.3-3.3
					C423,171.7,417.8,165,403.5,161.7z"/>
				<path class="st59" d="M403.5,161.8c-11.4-2.6-26.7-0.9-29.1,4.5c-2,4.5,7.4,9.9,19.3,14.2c13.5,4.8,24.4,4,27.1-3.3
					C422.9,171.7,417.8,165,403.5,161.8z"/>
				<path class="st60" d="M403.6,161.8c-11.3-2.6-26.4-0.8-28.8,4.5c-2,4.4,7.2,9.8,19.1,14.1c13.3,4.8,24.2,3.9,26.9-3.3
					C422.8,171.7,417.7,165.1,403.6,161.8z"/>
				<path class="st61" d="M403.6,161.9c-11.2-2.6-26.1-0.8-28.4,4.5c-2,4.4,7.1,9.7,18.8,14c13.1,4.8,24,3.9,26.6-3.2
					C422.7,171.7,417.6,165.1,403.6,161.9z"/>
				<path class="st62" d="M403.7,162c-11.1-2.6-25.7-0.8-28.1,4.5c-2,4.4,6.9,9.7,18.5,13.9c13,4.7,23.8,3.9,26.4-3.2
					C422.5,171.7,417.6,165.2,403.7,162z"/>
				<path class="st63" d="M403.8,162.1c-11-2.5-25.4-0.8-27.7,4.4c-1.9,4.3,6.8,9.6,18.2,13.8c12.8,4.7,23.6,3.8,26.2-3.2
					C422.4,171.8,417.5,165.3,403.8,162.1z"/>
				<path class="st64" d="M403.8,162.2c-10.9-2.5-25-0.8-27.4,4.4c-1.9,4.3,6.6,9.5,17.9,13.7c12.6,4.6,23.4,3.8,26-3.2
					C422.3,171.8,417.4,165.3,403.8,162.2z"/>
				<path class="st65" d="M403.9,162.3c-10.8-2.5-24.7-0.8-27,4.4c-1.9,4.3,6.5,9.5,17.6,13.6c12.4,4.6,23.2,3.7,25.7-3.2
					C422.2,171.8,417.4,165.4,403.9,162.3z"/>
				<path class="st66" d="M403.9,162.3c-10.7-2.5-24.3-0.8-26.6,4.4c-1.9,4.3,6.3,9.4,17.4,13.5c12.2,4.6,23,3.7,25.5-3.2
					C422.1,171.8,417.3,165.4,403.9,162.3z"/>
				<path class="st67" d="M404,162.4c-10.6-2.4-24-0.7-26.3,4.4c-1.9,4.3,6.1,9.3,17.1,13.4c12.1,4.5,22.7,3.7,25.3-3.2
					C422,171.8,417.2,165.5,404,162.4z"/>
				<path class="st68" d="M404.1,162.5c-10.5-2.4-23.7-0.7-25.9,4.3c-1.9,4.2,6,9.2,16.8,13.3c11.9,4.5,22.5,3.6,25.1-3.2
					C421.9,171.8,417.2,165.5,404.1,162.5z"/>
				<path class="st69" d="M404.1,162.6c-10.4-2.4-23.3-0.7-25.6,4.3c-1.9,4.2,5.8,9.2,16.5,13.2c11.7,4.5,22.3,3.6,24.8-3.2
					C421.8,171.8,417.1,165.6,404.1,162.6z"/>
				<path class="st70" d="M404.1,162.7c-10.3-2.4-23-0.7-25.2,4.3c-1.9,4.2,5.7,9.1,16.2,13.1c11.5,4.4,22.1,3.5,24.6-3.2
					C421.6,171.8,417,165.6,404.1,162.7z"/>
				<path class="st71" d="M404.2,162.8c-10.2-2.4-22.6-0.7-24.8,4.3c-1.8,4.1,5.5,9,15.9,13c11.3,4.4,21.9,3.5,24.4-3.2
					C421.5,171.8,417,165.7,404.2,162.8z"/>
				<path class="st72" d="M404.3,162.9c-10.1-2.3-22.3-0.7-24.5,4.3c-1.8,4.1,5.3,8.9,15.6,13c11.2,4.3,21.7,3.4,24.1-3.2
					C421.4,171.9,416.9,165.8,404.3,162.9z"/>
				<path class="st73" d="M404.3,162.9c-10-2.3-22-0.7-24.1,4.3c-1.8,4.1,5.2,8.9,15.4,12.9c11,4.3,21.5,3.4,23.9-3.2
					C421.3,171.9,416.8,165.8,404.3,162.9z"/>
				<path class="st74" d="M404.4,163c-9.9-2.3-21.6-0.6-23.8,4.2c-1.8,4.1,5,8.8,15.1,12.8c10.8,4.3,21.3,3.4,23.7-3.2
					C421.2,171.9,416.8,165.9,404.4,163z"/>
				<path class="st75" d="M404.4,163.1c-9.8-2.3-21.3-0.6-23.4,4.2c-1.8,4,4.9,8.7,14.8,12.7c10.6,4.3,21.1,3.3,23.5-3.2
					C421.1,171.9,416.7,165.9,404.4,163.1z"/>
				<path class="st76" d="M404.5,163.2c-9.7-2.2-20.9-0.6-23.1,4.2c-1.8,4,4.7,8.6,14.5,12.6c10.5,4.2,20.9,3.3,23.2-3.2
					C421,171.9,416.7,166,404.5,163.2z"/>
				<path class="st77" d="M404.6,163.3c-9.6-2.2-20.6-0.6-22.7,4.2c-1.8,4,4.6,8.6,14.2,12.5c10.3,4.2,20.7,3.3,23-3.2
					C420.9,171.9,416.6,166,404.6,163.3z"/>
				<path class="st78" d="M404.6,163.4c-9.5-2.2-20.3-0.6-22.3,4.2c-1.7,3.9,4.4,8.5,13.9,12.4c10.1,4.1,20.4,3.2,22.8-3.1
					C420.7,171.9,416.5,166.1,404.6,163.4z"/>
				<path class="st79" d="M404.7,163.4c-9.4-2.2-19.9-0.6-22,4.1c-1.7,3.9,4.3,8.4,13.6,12.3c9.9,4.1,20.2,3.2,22.5-3.1
					C420.6,171.9,416.4,166.1,404.7,163.4z"/>
				<path class="st80" d="M404.7,163.5c-9.3-2.1-19.6-0.6-21.6,4.1c-1.7,3.9,4.1,8.3,13.3,12.2c9.7,4.1,20,3.1,22.3-3.1
					C420.5,171.9,416.4,166.2,404.7,163.5z"/>
				<path class="st81" d="M404.8,163.6c-9.2-2.1-19.2-0.5-21.3,4.1c-1.7,3.9,3.9,8.2,13,12.1c9.6,4,19.8,3.1,22.1-3.1
					C420.4,171.9,416.3,166.3,404.8,163.6z"/>
				<path class="st82" d="M404.8,163.7c-9.2-2.1-18.9-0.5-20.9,4.1c-1.7,3.9,3.8,8.2,12.8,12c9.4,4,19.6,3.1,21.9-3.1
					C420.3,172,416.2,166.3,404.8,163.7z"/>
				<path class="st83" d="M404.9,163.8c-9.1-2.1-18.5-0.5-20.5,4.1c-1.7,3.8,3.6,8.1,12.5,11.9c9.2,3.9,19.4,3,21.6-3.1
					C420.2,172,416.2,166.4,404.9,163.8z"/>
				<path class="st84" d="M405,163.9c-9-2-18.2-0.5-20.2,4c-1.6,3.8,3.5,8,12.2,11.8c9,3.9,19.2,3,21.4-3.1
					C420,172,416.1,166.4,405,163.9z"/>
				<path class="st85" d="M405,163.9c-8.8-2-17.9-0.5-19.8,4c-1.6,3.8,3.3,8,11.9,11.7c8.9,3.9,19,2.9,21.2-3.1
					C420,172,416.1,166.5,405,163.9z"/>
				<path class="st86" d="M405.1,164c-8.7-2-17.5-0.5-19.5,4c-1.6,3.7,3.1,7.9,11.6,11.6c8.7,3.8,18.8,2.9,20.9-3.1
					C419.8,172,416,166.5,405.1,164z"/>
				<path class="st87" d="M405.1,164.1c-8.7-2-17.2-0.5-19.1,4c-1.6,3.7,3,7.8,11.3,11.5c8.5,3.8,18.6,2.9,20.7-3.1
					C419.7,172,415.9,166.6,405.1,164.1z"/>
				<path class="st88" d="M405.2,164.2c-8.6-1.9-16.8-0.5-18.8,4c-1.6,3.7,2.8,7.7,11.1,11.4c8.3,3.8,18.4,2.8,20.5-3.1
					C419.6,172,415.9,166.6,405.2,164.2z"/>
				<path class="st89" d="M405.2,164.3c-8.5-1.9-16.5-0.5-18.4,3.9c-1.6,3.6,2.7,7.7,10.8,11.3c8.2,3.7,18.1,2.8,20.3-3.1
					C419.5,172,415.8,166.7,405.2,164.3z"/>
				<path class="st90" d="M405.3,164.4c-8.4-1.9-16.2-0.4-18,3.9c-1.6,3.6,2.5,7.6,10.5,11.2c8,3.7,17.9,2.8,20-3.1
					C419.4,172,415.7,166.8,405.3,164.4z"/>
				<path class="st91" d="M405.4,164.4c-8.3-1.9-15.8-0.4-17.7,3.9c-1.5,3.6,2.4,7.5,10.2,11.1c7.8,3.6,17.7,2.7,19.8-3.1
					C419.3,172.1,415.7,166.8,405.4,164.4z"/>
				<path class="st92" d="M405.4,164.5c-8.2-1.9-15.5-0.4-17.3,3.9c-1.5,3.6,2.2,7.4,9.9,11.1c7.6,3.6,17.5,2.7,19.6-3.1
					C419.1,172.1,415.6,166.9,405.4,164.5z"/>
				<path class="st93" d="M405.5,164.6c-8.1-1.9-15.1-0.4-16.9,3.9c-1.5,3.5,2.1,7.3,9.6,11c7.4,3.6,17.3,2.6,19.3-3.1
					C419,172.1,415.5,166.9,405.5,164.6z"/>
				<path class="st94" d="M405.5,164.7c-8-1.8-14.8-0.4-16.6,3.9c-1.5,3.5,1.9,7.2,9.3,10.9c7.3,3.5,17.1,2.6,19.1-3.1
					C418.9,172.1,415.5,167,405.5,164.7z"/>
				<path class="st95" d="M405.6,164.8c-7.9-1.8-14.5-0.4-16.2,3.8c-1.5,3.5,1.7,7.2,9.1,10.8c7.1,3.5,16.9,2.6,18.9-3.1
					C418.8,172.1,415.4,167,405.6,164.8z"/>
				<path class="st96" d="M405.6,164.9c-7.8-1.8-14.1-0.4-15.9,3.8c-1.5,3.4,1.6,7.1,8.8,10.7c6.9,3.4,16.7,2.5,18.7-3
					C418.7,172.1,415.3,167.1,405.6,164.9z"/>
			</g>
		</g>
		<g>
			<path class="st4" d="M505.1,260.4c-15.3,35.5-62.4,66.8-129.5,34.6c-16.4-7.9-19.6-22.2-16.5-31c3.5-10.2,17.4-13,27.6-9.8
				c54.6,16.9,85,11.8,97-11.1c15.6-29.9-2.9-73.2-54.2-98.1c-24.5-11.9-50.2-16.6-72.1-15c-9.6-1-15.7-13-5-15
				c24.7-1.7,53.8,4.5,82.8,18.5C496,163,523.5,217.8,505.1,260.4z"/>
		</g>
		<g>
			<g>
				<path class="st4" d="M391.4,290.4c17.6,5.1,49.1,4.3,53-3c3.3-6.1-17-15.6-37.1-22.3c-24.8-8.3-37.8-8.5-42.3,1.4
					C361.7,274,369.4,284.1,391.4,290.4z"/>
				<path class="st5" d="M391.4,290.3c17.5,5,48.7,4.3,52.7-3c3.3-6.1-16.9-15.5-36.8-22.2c-24.7-8.3-37.6-8.5-42,1.4
					C361.8,274,369.5,284,391.4,290.3z"/>
				<path class="st5" d="M391.3,290.3c17.4,5,48.4,4.2,52.3-3c3.3-6.1-16.7-15.5-36.6-22.1c-24.5-8.2-37.4-8.4-41.8,1.4
					C361.9,274,369.6,284,391.3,290.3z"/>
				<path class="st6" d="M391.3,290.2c17.3,5,48,4.2,52-3c3.3-6-16.6-15.4-36.3-22c-24.3-8.2-37.2-8.4-41.6,1.4
					C362.1,274,369.6,283.9,391.3,290.2z"/>
				<path class="st6" d="M391.2,290.1c17.2,5,47.7,4.2,51.6-3c3.2-6-16.4-15.3-36-21.9c-24.1-8.2-37-8.3-41.4,1.4
					C362.2,274,369.7,283.9,391.2,290.1z"/>
				<path class="st6" d="M391.2,290c17.1,4.9,47.4,4.1,51.2-3c3.2-6-16.3-15.2-35.7-21.8c-24-8.1-36.8-8.3-41.1,1.5
					C362.3,274,369.8,283.8,391.2,290z"/>
				<path class="st7" d="M391.1,289.9c17,4.9,47,4.1,50.9-3c3.2-5.9-16.1-15.1-35.4-21.7c-23.8-8.1-36.6-8.2-40.9,1.5
					C362.4,274,369.8,283.8,391.1,289.9z"/>
				<path class="st7" d="M391.1,289.8c16.9,4.9,46.7,4.1,50.5-3c3.2-5.9-16-15-35.2-21.6c-23.6-8-36.4-8.2-40.7,1.4
					C362.5,273.9,369.9,283.7,391.1,289.8z"/>
				<path class="st8" d="M391,289.7c16.9,4.8,46.4,4,50.2-3c3.2-5.9-15.8-15-34.9-21.5c-23.4-8-36.2-8.1-40.5,1.5
					C362.6,273.9,370,283.7,391,289.7z"/>
				<path class="st9" d="M391,289.6c16.8,4.8,46,4,49.8-3c3.2-5.9-15.7-14.9-34.6-21.4c-23.2-7.9-36-8.1-40.2,1.5
					C362.7,273.9,370,283.6,391,289.6z"/>
				<path class="st10" d="M390.9,289.5c16.7,4.8,45.7,4,49.4-3c3.1-5.8-15.5-14.8-34.3-21.3c-23.1-7.9-35.8-8-40,1.5
					C362.8,273.9,370.1,283.6,390.9,289.5z"/>
				<path class="st10" d="M390.9,289.5c16.6,4.8,45.3,3.9,49.1-3c3.1-5.8-15.4-14.7-34-21.2c-22.9-7.8-35.5-8-39.8,1.5
					C363,273.9,370.2,283.5,390.9,289.5z"/>
				<path class="st11" d="M390.8,289.4c16.5,4.7,45,3.9,48.7-3c3.1-5.8-15.2-14.6-33.8-21c-22.7-7.8-35.3-7.9-39.6,1.5
					C363.1,273.9,370.3,283.5,390.8,289.4z"/>
				<path class="st11" d="M390.8,289.3c16.4,4.7,44.7,3.9,48.4-3c3.1-5.8-15-14.5-33.5-20.9c-22.6-7.7-35.1-7.9-39.3,1.5
					C363.2,273.9,370.3,283.4,390.8,289.3z"/>
				<path class="st12" d="M390.7,289.2c16.3,4.7,44.3,3.9,48-3c3.1-5.7-14.9-14.5-33.2-20.8c-22.4-7.7-34.9-7.8-39.1,1.5
					C363.3,273.9,370.4,283.3,390.7,289.2z"/>
				<path class="st13" d="M390.6,289.1c16.2,4.7,44,3.8,47.7-3c3.1-5.7-14.7-14.4-32.9-20.7c-22.2-7.7-34.7-7.8-38.9,1.5
					C363.4,273.9,370.4,283.3,390.6,289.1z"/>
				<path class="st14" d="M390.6,289c16.1,4.6,43.6,3.8,47.3-3c3-5.7-14.6-14.3-32.6-20.6c-22-7.6-34.5-7.7-38.6,1.5
					C363.5,273.9,370.5,283.2,390.6,289z"/>
				<path class="st14" d="M390.6,289c16,4.6,43.3,3.8,46.9-3c3-5.7-14.4-14.2-32.4-20.5c-21.8-7.6-34.3-7.7-38.4,1.5
					C363.6,273.9,370.6,283.2,390.6,289z"/>
				<path class="st15" d="M390.5,288.9c15.9,4.6,43,3.7,46.6-3c3-5.6-14.3-14.1-32.1-20.4c-21.7-7.5-34.1-7.6-38.2,1.5
					C363.7,273.9,370.7,283.2,390.5,288.9z"/>
				<path class="st15" d="M390.4,288.8c15.8,4.5,42.6,3.7,46.2-3c3-5.6-14.1-14.1-31.8-20.3c-21.5-7.5-33.9-7.6-38,1.5
					C363.9,273.9,370.7,283.1,390.4,288.8z"/>
				<path class="st16" d="M390.4,288.7c15.7,4.5,42.3,3.7,45.9-3c3-5.6-14-14-31.5-20.2c-21.3-7.5-33.7-7.5-37.7,1.5
					C364,273.9,370.8,283,390.4,288.7z"/>
				<path class="st17" d="M390.3,288.6c15.6,4.5,41.9,3.6,45.5-3c3-5.6-13.8-13.9-31.2-20.1c-21.2-7.4-33.5-7.5-37.5,1.5
					C364.1,273.9,370.9,283,390.3,288.6z"/>
				<path class="st18" d="M390.3,288.5c15.5,4.4,41.6,3.6,45.1-3c2.9-5.5-13.7-13.8-30.9-20c-21-7.4-33.3-7.4-37.3,1.5
					C364.2,273.9,370.9,282.9,390.3,288.5z"/>
				<path class="st18" d="M390.2,288.4c15.4,4.4,41.3,3.6,44.8-3c2.9-5.5-13.5-13.7-30.7-19.8c-20.8-7.3-33.1-7.4-37,1.6
					C364.3,273.9,371,282.9,390.2,288.4z"/>
				<path class="st19" d="M390.2,288.3c15.3,4.4,40.9,3.5,44.4-3c2.9-5.5-13.4-13.6-30.4-19.7c-20.6-7.3-32.9-7.3-36.8,1.6
					C364.4,273.9,371.1,282.8,390.2,288.3z"/>
				<path class="st19" d="M390.1,288.2c15.2,4.4,40.6,3.5,44.1-3c2.9-5.4-13.2-13.6-30.1-19.6c-20.4-7.3-32.7-7.3-36.6,1.6
					C364.5,273.9,371.1,282.8,390.1,288.2z"/>
				<path class="st20" d="M390.1,288.1c15.1,4.3,40.2,3.5,43.7-3c2.9-5.4-13-13.5-29.8-19.5c-20.3-7.2-32.4-7.2-36.3,1.6
					C364.6,273.9,371.2,282.7,390.1,288.1z"/>
				<path class="st21" d="M390,288.1c15,4.3,39.9,3.4,43.3-3c2.9-5.4-12.9-13.5-29.5-19.4c-20.1-7.2-32.2-7.2-36.1,1.6
					C364.8,273.9,371.3,282.7,390,288.1z"/>
				<path class="st22" d="M390,288c14.9,4.3,39.6,3.4,43-3c2.9-5.4-12.7-13.4-29.3-19.3c-19.9-7.2-32-7.1-35.9,1.6
					C364.9,273.9,371.3,282.6,390,288z"/>
				<path class="st23" d="M389.9,287.9c14.8,4.3,39.2,3.4,42.6-3c2.8-5.3-12.6-13.3-29-19.2c-19.7-7.1-31.8-7.1-35.7,1.6
					C365,273.9,371.4,282.6,389.9,287.9z"/>
				<path class="st24" d="M389.9,287.8c14.7,4.2,38.9,3.4,42.3-3c2.8-5.3-12.4-13.2-28.7-19.1c-19.5-7.1-31.6-7-35.4,1.6
					C365.1,273.8,371.5,282.5,389.9,287.8z"/>
				<path class="st25" d="M389.8,287.7c14.6,4.2,38.5,3.3,41.9-3c2.8-5.3-12.3-13.1-28.4-19c-19.4-7-31.4-7-35.2,1.6
					C365.2,273.8,371.5,282.5,389.8,287.7z"/>
				<path class="st26" d="M389.8,287.6c14.5,4.2,38.2,3.3,41.6-3c2.8-5.3-12.1-13-28.1-18.9c-19.2-7-31.2-6.9-35,1.6
					C365.3,273.8,371.6,282.4,389.8,287.6z"/>
				<path class="st27" d="M389.7,287.6c14.4,4.1,37.9,3.3,41.2-3c2.8-5.2-12-13-27.9-18.8c-19-6.9-31-6.9-34.8,1.6
					C365.4,273.8,371.7,282.4,389.7,287.6z"/>
				<path class="st28" d="M389.7,287.5c14.3,4.1,37.5,3.2,40.8-3c2.8-5.2-11.8-12.9-27.6-18.6c-18.8-6.9-30.8-6.8-34.5,1.6
					C365.6,273.8,371.7,282.3,389.7,287.5z"/>
				<path class="st29" d="M389.6,287.4c14.2,4.1,37.2,3.2,40.5-3c2.7-5.2-11.6-12.8-27.3-18.5c-18.7-6.8-30.6-6.8-34.3,1.6
					C365.7,273.8,371.8,282.3,389.6,287.4z"/>
				<path class="st30" d="M389.6,287.3c14.1,4.1,36.8,3.2,40.1-3c2.7-5.2-11.5-12.7-27-18.4c-18.5-6.8-30.4-6.7-34.1,1.6
					C365.8,273.8,371.9,282.2,389.6,287.3z"/>
				<path class="st31" d="M389.5,287.2c14,4,36.5,3.1,39.7-3c2.7-5.1-11.3-12.6-26.7-18.3c-18.3-6.8-30.2-6.7-33.8,1.6
					C365.9,273.8,372,282.2,389.5,287.2z"/>
				<path class="st32" d="M389.5,287.1c14,4,36.2,3.1,39.4-3c2.7-5.1-11.2-12.6-26.5-18.2c-18.1-6.7-30-6.6-33.6,1.7
					C366,273.8,372,282.1,389.5,287.1z"/>
				<path class="st33" d="M389.4,287c13.9,4,35.8,3.1,39-3c2.7-5.1-11-12.5-26.2-18.1c-17.9-6.7-29.8-6.6-33.4,1.7
					C366.1,273.8,372.1,282.1,389.4,287z"/>
				<path class="st34" d="M389.3,286.9c13.8,3.9,35.5,3,38.7-3c2.7-5-10.9-12.4-25.9-18c-17.8-6.6-29.5-6.5-33.2,1.7
					C366.2,273.8,372.2,282,389.3,286.9z"/>
				<path class="st35" d="M389.3,286.8c13.7,3.9,35.1,3,38.3-3c2.6-5-10.7-12.3-25.6-17.9c-17.6-6.6-29.3-6.5-32.9,1.7
					C366.4,273.8,372.2,281.9,389.3,286.8z"/>
				<path class="st36" d="M389.2,286.8c13.6,3.9,34.8,3,38-3c2.6-5-10.6-12.2-25.3-17.8c-17.4-6.6-29.1-6.4-32.7,1.7
					C366.5,273.8,372.3,281.9,389.2,286.8z"/>
				<path class="st37" d="M389.2,286.7c13.5,3.9,34.5,2.9,37.6-3c2.6-5-10.4-12.1-25.1-17.7c-17.3-6.5-28.9-6.4-32.5,1.7
					C366.6,273.8,372.4,281.8,389.2,286.7z"/>
				<path class="st38" d="M389.1,286.6c13.4,3.8,34.1,2.9,37.2-3c2.6-4.9-10.3-12.1-24.8-17.6c-17.1-6.5-28.7-6.3-32.3,1.7
					C366.7,273.8,372.4,281.8,389.1,286.6z"/>
				<path class="st39" d="M389.1,286.5c13.3,3.8,33.8,2.9,36.9-3c2.6-4.9-10.1-12-24.5-17.4c-16.9-6.4-28.5-6.3-32,1.7
					C366.8,273.8,372.5,281.8,389.1,286.5z"/>
				<path class="st40" d="M389,286.4c13.2,3.8,33.4,2.9,36.5-3c2.6-4.9-10-11.9-24.2-17.3c-16.7-6.4-28.3-6.2-31.8,1.7
					C366.9,273.8,372.6,281.7,389,286.4z"/>
				<path class="st41" d="M389,286.3c13.1,3.8,33.1,2.8,36.2-3c2.5-4.9-9.8-11.8-23.9-17.2c-16.5-6.3-28.1-6.2-31.6,1.7
					C367,273.8,372.7,281.6,389,286.3z"/>
				<path class="st42" d="M388.9,286.2c13,3.7,32.8,2.8,35.8-3c2.5-4.8-9.7-11.7-23.7-17.1c-16.4-6.3-27.9-6.1-31.3,1.7
					C367.1,273.8,372.7,281.6,388.9,286.2z"/>
				<path class="st43" d="M388.9,286.1c12.9,3.7,32.4,2.8,35.4-3c2.5-4.8-9.5-11.6-23.4-17c-16.2-6.3-27.7-6.1-31.1,1.7
					C367.3,273.8,372.8,281.5,388.9,286.1z"/>
				<path class="st44" d="M388.8,286.1c12.8,3.7,32.1,2.7,35.1-3c2.5-4.8-9.3-11.6-23.1-16.9c-16-6.2-27.5-6-30.9,1.7
					C367.4,273.8,372.8,281.5,388.8,286.1z"/>
				<path class="st45" d="M388.8,286c12.7,3.6,31.7,2.7,34.7-3c2.5-4.8-9.2-11.5-22.8-16.8c-15.8-6.2-27.3-6-30.7,1.7
					C367.5,273.8,372.9,281.4,388.8,286z"/>
				<path class="st45" d="M388.7,285.9c12.6,3.6,31.4,2.7,34.4-3c2.5-4.7-9-11.4-22.5-16.7c-15.7-6.1-27.1-5.9-30.4,1.7
					C367.6,273.8,373,281.4,388.7,285.9z"/>
				<path class="st46" d="M388.7,285.8c12.5,3.6,31.1,2.6,34-3c2.4-4.7-8.9-11.3-22.2-16.6c-15.5-6.1-26.9-5.9-30.2,1.8
					C367.7,273.7,373.1,281.3,388.7,285.8z"/>
				<path class="st47" d="M388.6,285.7c12.4,3.5,30.7,2.6,33.7-3c2.4-4.7-8.7-11.2-22-16.5c-15.3-6-26.6-5.8-30,1.8
					C367.8,273.7,373.1,281.3,388.6,285.7z"/>
				<path class="st48" d="M388.6,285.6c12.3,3.5,30.4,2.6,33.3-3c2.4-4.7-8.6-11.2-21.7-16.4c-15.1-6-26.4-5.8-29.7,1.8
					C367.9,273.7,373.2,281.2,388.6,285.6z"/>
				<path class="st49" d="M388.5,285.5c12.2,3.5,30,2.5,32.9-3c2.4-4.6-8.4-11.1-21.4-16.2c-15-5.9-26.2-5.7-29.5,1.8
					C368,273.7,373.3,281.2,388.5,285.5z"/>
				<path class="st50" d="M388.5,285.5c12.1,3.5,29.7,2.5,32.6-3c2.4-4.6-8.2-11-21.1-16.1c-14.8-5.9-26-5.7-29.3,1.8
					C368.2,273.7,373.3,281.1,388.5,285.5z"/>
				<path class="st51" d="M388.4,285.4c12,3.4,29.4,2.5,32.2-3c2.4-4.6-8.1-10.9-20.8-16c-14.6-5.8-25.8-5.6-29,1.8
					C368.3,273.7,373.4,281.1,388.4,285.4z"/>
				<path class="st52" d="M388.4,285.3c11.9,3.4,29,2.4,31.9-3c2.4-4.5-7.9-10.8-20.6-15.9c-14.4-5.8-25.6-5.6-28.8,1.8
					C368.4,273.7,373.5,281,388.4,285.3z"/>
				<path class="st53" d="M388.3,285.2c11.8,3.4,28.7,2.4,31.5-3c2.3-4.5-7.8-10.8-20.3-15.8c-14.3-5.8-25.4-5.5-28.6,1.8
					C368.5,273.7,373.5,281,388.3,285.2z"/>
				<path class="st54" d="M388.2,285.1c11.7,3.4,28.3,2.4,31.1-3c2.3-4.5-7.6-10.7-20-15.7c-14.1-5.7-25.2-5.5-28.4,1.8
					C368.6,273.7,373.6,280.9,388.2,285.1z"/>
				<path class="st55" d="M388.2,285c11.6,3.3,28,2.4,30.8-3c2.3-4.5-7.5-10.6-19.7-15.6c-13.9-5.7-25-5.4-28.1,1.8
					C368.7,273.7,373.7,280.8,388.2,285z"/>
				<path class="st56" d="M388.1,284.9c11.5,3.3,27.7,2.3,30.4-3c2.3-4.4-7.3-10.5-19.4-15.5c-13.7-5.6-24.8-5.4-27.9,1.8
					C368.8,273.7,373.7,280.8,388.1,284.9z"/>
				<path class="st57" d="M388.1,284.8c11.4,3.3,27.3,2.3,30-3c2.3-4.4-7.2-10.4-19.1-15.4c-13.5-5.6-24.6-5.3-27.7,1.8
					C369,273.7,373.8,280.8,388.1,284.8z"/>
				<path class="st58" d="M388,284.7c11.3,3.2,27,2.3,29.7-3c2.3-4.4-7-10.3-18.9-15.3c-13.4-5.5-24.4-5.3-27.5,1.8
					C369.1,273.7,373.9,280.7,388,284.7z"/>
				<path class="st59" d="M388,284.7c11.2,3.2,26.6,2.2,29.3-3c2.2-4.3-6.9-10.3-18.6-15.2c-13.2-5.5-24.2-5.2-27.2,1.8
					C369.2,273.7,373.9,280.7,388,284.7z"/>
				<path class="st60" d="M387.9,284.6c11.1,3.2,26.3,2.2,29-3c2.2-4.3-6.7-10.2-18.3-15c-13-5.5-24-5.2-27,1.9
					C369.3,273.7,374,280.6,387.9,284.6z"/>
				<path class="st61" d="M387.9,284.5c11.1,3.2,26,2.2,28.6-3c2.2-4.3-6.6-10.1-18-14.9c-12.8-5.4-23.7-5.1-26.8,1.9
					C369.4,273.7,374.1,280.5,387.9,284.5z"/>
				<path class="st62" d="M387.8,284.4c11,3.1,25.6,2.1,28.3-3c2.2-4.3-6.4-10-17.7-14.8c-12.7-5.4-23.6-5.1-26.6,1.9
					C369.5,273.7,374.1,280.5,387.8,284.4z"/>
				<path class="st63" d="M387.8,284.3c10.9,3.1,25.3,2.1,27.9-3c2.2-4.3-6.3-9.9-17.5-14.7c-12.5-5.3-23.3-5-26.3,1.9
					C369.6,273.7,374.2,280.4,387.8,284.3z"/>
				<path class="st64" d="M387.7,284.2c10.8,3.1,24.9,2.1,27.5-3c2.2-4.2-6.1-9.9-17.2-14.6c-12.3-5.3-23.1-5-26.1,1.9
					C369.8,273.7,374.3,280.4,387.7,284.2z"/>
				<path class="st65" d="M387.7,284.1c10.7,3,24.6,2,27.2-3c2.1-4.2-5.9-9.8-16.9-14.5c-12.1-5.2-22.9-4.9-25.9,1.9
					C369.9,273.7,374.4,280.3,387.7,284.1z"/>
				<path class="st66" d="M387.6,284.1c10.6,3,24.3,2,26.8-3c2.1-4.2-5.8-9.7-16.6-14.4c-12-5.2-22.7-4.9-25.6,1.9
					C370,273.7,374.4,280.3,387.6,284.1z"/>
				<path class="st67" d="M387.6,284c10.5,3,23.9,2,26.5-3c2.1-4.1-5.6-9.6-16.3-14.3c-11.8-5.2-22.5-4.8-25.4,1.9
					C370.1,273.7,374.5,280.2,387.6,284z"/>
				<path class="st68" d="M387.5,283.9c10.4,3,23.6,1.9,26.1-3c2.1-4.1-5.5-9.5-16-14.2c-11.6-5.1-22.3-4.8-25.2,1.9
					C370.2,273.7,374.6,280.2,387.5,283.9z"/>
				<path class="st69" d="M387.5,283.8c10.3,2.9,23.2,1.9,25.7-3c2.1-4.1-5.3-9.4-15.8-14.1c-11.4-5.1-22.1-4.7-25,1.9
					C370.3,273.7,374.6,280.1,387.5,283.8z"/>
				<path class="st70" d="M387.4,283.7c10.2,2.9,22.9,1.9,25.4-3c2.1-4.1-5.2-9.4-15.5-14c-11.3-5-21.9-4.7-24.7,1.9
					C370.4,273.6,374.7,280.1,387.4,283.7z"/>
				<path class="st71" d="M387.4,283.6c10.1,2.9,22.6,1.9,25-3c2-4-5-9.3-15.2-13.9c-11.1-5-21.7-4.6-24.5,1.9
					C370.5,273.6,374.8,280,387.4,283.6z"/>
				<path class="st72" d="M387.3,283.5c10,2.9,22.2,1.8,24.7-3c2-4-4.9-9.2-14.9-13.7c-10.9-4.9-21.5-4.6-24.3,1.9
					C370.7,273.6,374.8,280,387.3,283.5z"/>
				<path class="st73" d="M387.2,283.4c9.9,2.8,21.9,1.8,24.3-3c2-4-4.7-9.1-14.6-13.6c-10.7-4.9-21.3-4.5-24,1.9
					C370.8,273.6,374.9,279.9,387.2,283.4z"/>
				<path class="st74" d="M387.2,283.3c9.8,2.8,21.5,1.8,24-3c2-4-4.6-9-14.4-13.5c-10.6-4.8-21.1-4.5-23.8,1.9
					C370.9,273.6,375,279.9,387.2,283.3z"/>
				<path class="st75" d="M387.2,283.3c9.7,2.8,21.2,1.7,23.6-3c2-3.9-4.4-8.9-14.1-13.4c-10.4-4.8-20.8-4.4-23.6,1.9
					C371,273.6,375.1,279.8,387.2,283.3z"/>
				<path class="st76" d="M387.1,283.2c9.6,2.7,20.9,1.7,23.2-3c2-3.9-4.3-8.9-13.8-13.3c-10.2-4.8-20.7-4.4-23.4,1.9
					C371.1,273.6,375.1,279.8,387.1,283.2z"/>
				<path class="st77" d="M387.1,283.1c9.5,2.7,20.5,1.7,22.9-3c1.9-3.9-4.1-8.8-13.5-13.2c-10-4.7-20.4-4.3-23.1,1.9
					C371.2,273.6,375.2,279.7,387.1,283.1z"/>
				<path class="st78" d="M387,283c9.4,2.7,20.2,1.6,22.5-3c1.9-3.9-3.9-8.7-13.2-13.1c-9.9-4.7-20.2-4.3-22.9,1.9
					C371.3,273.6,375.2,279.7,387,283z"/>
				<path class="st79" d="M386.9,282.9c9.3,2.7,19.8,1.6,22.2-3c1.9-3.8-3.8-8.6-13-13c-9.7-4.6-20-4.2-22.7,2
					C371.5,273.6,375.3,279.6,386.9,282.9z"/>
				<path class="st80" d="M386.9,282.8c9.2,2.6,19.5,1.6,21.8-3c1.9-3.8-3.6-8.5-12.7-12.9c-9.5-4.6-19.8-4.2-22.4,2
					C371.6,273.6,375.4,279.6,386.9,282.8z"/>
				<path class="st81" d="M386.8,282.8c9.1,2.6,19.2,1.5,21.4-3c1.9-3.8-3.5-8.4-12.4-12.8c-9.3-4.5-19.6-4.1-22.2,2
					C371.7,273.6,375.5,279.5,386.8,282.8z"/>
				<path class="st82" d="M386.8,282.7c9,2.6,18.8,1.5,21.1-3c1.9-3.8-3.4-8.4-12.1-12.6c-9.2-4.5-19.4-4.1-22,2
					C371.8,273.6,375.5,279.4,386.8,282.7z"/>
				<path class="st83" d="M386.7,282.6c8.9,2.5,18.5,1.5,20.7-3c1.9-3.7-3.2-8.3-11.8-12.5c-9-4.4-19.2-4-21.7,2
					C371.9,273.6,375.6,279.4,386.7,282.6z"/>
				<path class="st84" d="M386.7,282.5c8.8,2.5,18.1,1.5,20.4-3c1.9-3.7-3-8.2-11.6-12.4c-8.8-4.4-19-4-21.5,2
					C372,273.6,375.7,279.4,386.7,282.5z"/>
				<path class="st85" d="M386.6,282.4c8.7,2.5,17.8,1.4,20-3c1.8-3.7-2.9-8.1-11.3-12.3c-8.6-4.3-18.8-3.9-21.3,2
					C372.1,273.6,375.7,279.3,386.6,282.4z"/>
				<path class="st86" d="M386.6,282.3c8.6,2.4,17.5,1.4,19.6-3c1.8-3.6-2.7-8-11-12.2c-8.5-4.3-18.6-3.9-21.1,2
					C372.2,273.6,375.8,279.3,386.6,282.3z"/>
				<path class="st87" d="M386.5,282.2c8.5,2.4,17.1,1.4,19.3-3c1.8-3.6-2.6-7.9-10.7-12.1c-8.3-4.2-18.4-3.8-20.8,2
					C372.4,273.6,375.9,279.2,386.5,282.2z"/>
				<path class="st88" d="M386.5,282.1c8.4,2.4,16.8,1.3,18.9-3c1.8-3.6-2.4-7.8-10.4-12c-8.1-4.2-18.2-3.8-20.6,2
					C372.5,273.6,375.9,279.1,386.5,282.1z"/>
				<path class="st89" d="M386.4,282c8.3,2.4,16.4,1.3,18.6-3c1.8-3.6-2.3-7.8-10.1-11.9c-7.9-4.1-18-3.7-20.4,2
					C372.6,273.6,376,279.1,386.4,282z"/>
				<path class="st90" d="M386.4,282c8.2,2.4,16.1,1.3,18.2-3c1.8-3.5-2.1-7.7-9.9-11.8c-7.8-4.1-17.8-3.7-20.2,2
					C372.7,273.6,376.1,279,386.4,282z"/>
				<path class="st91" d="M386.3,281.9c8.2,2.3,15.8,1.2,17.9-3c1.7-3.5-2-7.6-9.6-11.7c-7.6-4-17.5-3.6-19.9,2
					C372.8,273.6,376.1,279,386.3,281.9z"/>
				<path class="st92" d="M386.3,281.8c8.1,2.3,15.4,1.2,17.5-3c1.7-3.5-1.8-7.5-9.3-11.6c-7.4-4-17.4-3.6-19.7,2
					C372.9,273.6,376.2,278.9,386.3,281.8z"/>
				<path class="st93" d="M386.2,281.7c8,2.3,15.1,1.2,17.1-3c1.7-3.4-1.7-7.4-9-11.5c-7.2-3.9-17.1-3.5-19.5,2
					C373,273.6,376.3,278.9,386.2,281.7z"/>
				<path class="st94" d="M386.2,281.6c7.9,2.2,14.7,1.1,16.8-3c1.7-3.4-1.5-7.3-8.7-11.3c-7.1-3.9-16.9-3.5-19.3,2.1
					C373.2,273.6,376.3,278.8,386.2,281.6z"/>
				<path class="st95" d="M386.1,281.5c7.7,2.2,14.4,1.1,16.4-3c1.7-3.4-1.4-7.2-8.5-11.2c-6.9-3.9-16.7-3.4-19,2.1
					C373.3,273.6,376.4,278.8,386.1,281.5z"/>
				<path class="st96" d="M386.1,281.4c7.7,2.2,14.1,1.1,16-3c1.7-3.4-1.2-7.2-8.2-11.1c-6.7-3.8-16.5-3.4-18.8,2.1
					C373.4,273.6,376.5,278.7,386.1,281.4z"/>
			</g>
		</g>
		<g>
			<path class="st4" d="M224.1,467.6c-34.2,0-47.7-19.5-47.7-43.3s13.5-43.3,47.7-43.3s47.5,19.5,47.5,43.3
				C271.6,448.1,258.3,467.6,224.1,467.6z M224.1,388.3c-22.4,0-28.9,16.6-28.9,35.7s6.4,35.5,28.9,35.5s28.6-16.4,28.6-35.5
				C252.7,404.9,246.5,388.3,224.1,388.3z"/>
			<path class="st4" d="M345.7,466.4l-25.1-27.5c-5.1-5.5-10.4-9.8-18.9-11.1v38.7h-18v-80.9c8.4-2.7,20.9-4.5,32.4-4.5
				c28.9,0,45.5,7.8,45.5,23.9c0,12.2-15.3,21.2-36.8,23.1v0.2c5.3,2.7,10,6.2,13.5,9.8l28,28.4L345.7,466.4L345.7,466.4z
				 M316.4,387.7c-5.6,0-10.4,0.6-14.7,1.6v33.7c3.6,0.5,7.1,0.6,10.9,0.6c19.5,0,31.3-8.1,31.3-18.5
				C344,393.5,334.9,387.7,316.4,387.7z"/>
			<path class="st4" d="M373.7,466.4v-84.2h61.7v7.3h-43.3v29.7h39.1v7.2h-39.1V459h43.3v7.3L373.7,466.4L373.7,466.4z M405.5,375.9
				h-9.1l6.8-15.5c2.9-1.4,6.9-2.1,10.4-2.1c3.8,0,6.9,0.6,7.8,2.1L405.5,375.9z"/>
			<path class="st4" d="M496.2,467.6c-29.7,0-55.1-13.8-55.1-43.6c0-28.3,24.6-43.1,55.9-43.1c12.9,0,23.3,1.8,30.6,4.7l-5.3,6.5
				c-5.3-1.8-14.2-3.5-24.4-3.5c-22.7,0-38,11.4-38,35.6c0,19.7,13.1,35.7,35.3,35.7c6.2,0,12.9-0.6,16.7-1.8v-31.9h-22v-6.8h40V463
				C522.6,465.8,510.9,467.6,496.2,467.6z"/>
			<path class="st4" d="M545.3,466.4v-84.2h18.4v84.2H545.3z"/>
			<path class="st4" d="M580.6,466.4v-84.2h61.7v7.3H599v29.7H638v7.2H599V459h43.3v7.3L580.6,466.4L580.6,466.4z"/>
			<path class="st4" d="M677.6,467.2c-11.9,0-20.1-0.9-30-0.9l0.2-7.7c7.9,0,18.7,0.3,27,0.3c15.3,0,25.3-6.5,25.3-15.1
				c0-21.1-51.6-15.5-51.6-42.9c0-12.9,16.4-21.3,38.3-21.3c11.7,0,20.9,2.1,26.2,4.7l-4.3,6.7c-4.5-2-11.2-3.7-19.7-3.7
				c-12.8,0-22.7,5.3-22.7,13.6c0,20.6,52.5,15,52.5,42.9C718.8,457.2,701.5,467.2,677.6,467.2z"/>
			<path class="st4" d="M130.6,467.2c-11.9,0-20.1-0.9-30-0.9l0.2-7.7c7.9,0,18.7,0.3,27,0.3c15.2,0,25.3-6.5,25.3-15.1
				c0-21.1-51.6-15.5-51.6-42.9c0-12.9,16.4-21.3,38.3-21.3c11.7,0,20.8,2.1,26.2,4.7l-4.3,6.7c-4.5-2-11.2-3.7-19.7-3.7
				c-12.8,0-22.6,5.3-22.6,13.6c0,20.6,52.5,15,52.5,42.9C171.9,457.2,154.7,467.2,130.6,467.2z"/>
		</g>
		<g>
			<path class="st4" d="M515.4,369.3v-15.7h10.1v2.3H520v4.3h4.9v2.3H520v4.5h5.6v2.3L515.4,369.3L515.4,369.3z M521,352.4h-2.1
				l1.6-3c0.6-0.3,1.5-0.5,2.3-0.5c0.8,0,1.5,0.2,1.7,0.5L521,352.4z"/>
			<path class="st4" d="M527.9,369.3v-15.7h4.6V367h5.1v2.3L527.9,369.3L527.9,369.3z"/>
			<path class="st4" d="M539.5,369.3v-15.7h10.1v2.3h-5.6v4.3h4.9v2.3h-4.9v4.5h5.6v2.3L539.5,369.3L539.5,369.3z"/>
			<path class="st4" d="M559.3,369.5c-5.4,0-7.9-3.8-7.9-8.1c0-4.3,2.5-8.1,7.9-8.1c1.9,0,3.3,0.3,4.2,0.9l-0.9,2
				c-0.5-0.3-1.3-0.4-2.4-0.4c-3,0-4.2,2.7-4.2,5.7c0,3,1.3,5.5,4.1,5.5c1,0,1.9-0.2,2.4-0.5l1,2.1
				C562.7,369.2,561.2,369.5,559.3,369.5z"/>
			<path class="st4" d="M573,355.9v13.4h-4.6v-13.4h-3.6v-2.3h11.8v2.3H573z"/>
			<path class="st4" d="M588.2,369.3l-2.8-4.7c-0.5-0.9-1.2-1.6-2.2-2v6.7h-4.5v-15.1c1.5-0.5,3.7-0.9,5.9-0.9
				c4.9,0,7.7,1.5,7.7,4.8c0,2.1-1.7,3.5-4.4,4.1v0c0.8,0.6,1.5,1.4,2,2.1l3.4,4.9L588.2,369.3L588.2,369.3z M584.6,355.4
				c-0.5,0-1.1,0.1-1.5,0.2v5.5c0.3,0.1,0.8,0.1,1.2,0.1c2.3,0,3.5-1.3,3.5-2.9C587.8,356.3,586.9,355.4,584.6,355.4z"/>
			<path class="st4" d="M595,369.3v-15.7h4.6v15.7H595z"/>
			<path class="st4" d="M610,369.5c-5.4,0-7.9-3.8-7.9-8.1c0-4.3,2.5-8.1,7.9-8.1c1.9,0,3.3,0.3,4.2,0.9l-0.9,2
				c-0.5-0.3-1.3-0.4-2.4-0.4c-3,0-4.2,2.7-4.2,5.7c0,3,1.3,5.5,4.1,5.5c1,0,1.9-0.2,2.4-0.5l1,2.1
				C613.4,369.2,611.9,369.5,610,369.5z"/>
			<path class="st4" d="M616.2,369.3v-15.7h4.6v15.7H616.2z"/>
			<path class="st4" d="M631,355.9v13.4h-4.6v-13.4h-3.6v-2.3h11.8v2.3H631z"/>
			<path class="st4" d="M636.6,369.3v-15.7h10.1v2.3h-5.6v4.3h4.9v2.3h-4.9v4.5h5.6v2.3L636.6,369.3L636.6,369.3z M642.2,352.4h-2.1
				l1.6-3c0.6-0.3,1.5-0.5,2.3-0.5c0.8,0,1.5,0.2,1.7,0.5L642.2,352.4z"/>
			<path class="st4" d="M655.3,362.5v-2.5h7.5v2.5H655.3z"/>
			<path class="st4" d="M680.5,369.5c-5.6,0-9-3-9-8.1c0-4.9,3.8-8.1,9.4-8.1c2.1,0,3.9,0.4,5,0.9l-1.3,2.1
				c-0.8-0.3-1.9-0.5-3.3-0.5c-3.2,0-5.1,1.9-5.1,5.7c0,3.2,1.4,5.6,4,5.6c0.6,0,1.3-0.1,1.6-0.2v-4.6h-2.4v-2h6.8v8.5
				C684.9,369.2,683,369.5,680.5,369.5z"/>
			<path class="st4" d="M699.7,369.3l-1.2-3.6h-6l-1.2,3.6h-4.2l6.3-15.7h4.7l6.3,15.7H699.7z M696.2,358.6
				c-0.2-0.7-0.4-1.5-0.5-2.1h-0.1c-0.1,0.6-0.3,1.4-0.5,2.1l-1.8,5.1h4.6L696.2,358.6z"/>
			<path class="st4" d="M704.2,369.3l6.5-13.4h-5.9v-2.4h11.4l-6.1,13.4h6.2v2.3L704.2,369.3L704.2,369.3z"/>
		</g>
		<g>
			<rect x="100.5" y="480.7" class="st3" width="618.2" height="42.8"/>
			<g>
				<path class="st2" d="M186.6,515c-8.8,0-14.2-4.4-14.2-12.1c0-7.4,6-12.1,14.9-12.1c3.4,0,6.1,0.5,8,1.3l-2,3.1
					c-1.2-0.4-3-0.8-5.3-0.8c-5.1,0-8.2,2.9-8.2,8.4c0,4.8,2.2,8.4,6.4,8.4c1,0,2-0.1,2.5-0.3v-6.9h-3.7V501h10.7v12.7
					C193.8,514.5,190.7,515,186.6,515z"/>
				<path class="st2" d="M215.3,514.7l-4.5-7c-0.9-1.3-1.9-2.5-3.5-3v10.1h-7.1v-22.6c2.4-0.8,5.9-1.3,9.3-1.3
					c7.8,0,12.2,2.3,12.2,7.1c0,3.1-2.7,5.3-7,6.2v0.1c1.2,0.9,2.4,2.1,3.2,3.1l5.4,7.3L215.3,514.7L215.3,514.7z M209.7,493.9
					c-0.9,0-1.7,0.1-2.4,0.3v8.2c0.5,0.1,1.2,0.1,1.9,0.1c3.6,0,5.6-2,5.6-4.4C214.8,495.3,213.2,493.9,209.7,493.9z"/>
				<path class="st2" d="M236.7,515c-9,0-12.4-5.4-12.4-12.1c0-6.7,3.4-12.1,12.4-12.1s12.4,5.4,12.4,12.1S245.7,515,236.7,515z
					 M236.7,494.3c-3.9,0-5,3.6-5,8.4c0,4.8,1.1,8.4,5,8.4s5-3.6,5-8.4C241.7,497.9,240.6,494.3,236.7,494.3z"/>
				<path class="st2" d="M264.1,515.1c-6.3,0-11-2.5-11-7.1v-16.8h7.2v17c0,1.9,1.6,3,4,3s4-1.1,4-3v-17h6.7V508
					C275.1,512.6,270.3,515.1,264.1,515.1z"/>
				<path class="st2" d="M290,505.8c-1,0-2.2-0.1-2.9-0.1v9.1h-7.2v-22.5c2.2-0.8,5.6-1.3,9.4-1.3c8.4,0,12.2,3.1,12.2,7.5
					C301.6,502.4,298,505.8,290,505.8z M289.3,493.9c-0.8,0-1.6,0.1-2.2,0.3v8.3c0.5,0.1,1.1,0.1,1.7,0.1c3.9,0,5.7-1.6,5.7-4.3
					C294.5,495.5,292.9,493.9,289.3,493.9z"/>
				<path class="st2" d="M304.7,514.7v-23.5h16v3.5h-8.8v6.4h7.7v3.4h-7.7v6.8h8.8v3.5L304.7,514.7L304.7,514.7z"/>
				<path class="st2" d="M335.2,514.7v-23.5h16v3.5h-8.8v6.4h7.7v3.4h-7.7v6.8h8.8v3.5L335.2,514.7L335.2,514.7z M344,489.5h-3.3
					l2.5-4.5c1-0.5,2.4-0.7,3.7-0.7c1.2,0,2.3,0.2,2.6,0.7L344,489.5z"/>
				<path class="st2" d="M373.1,514.7l-10.6-13.8c-0.8-1.1-1.3-2-1.5-2.5h-0.1c0,0.4,0.2,1.3,0.2,2.5v13.8h-6.2v-23.5h6.5l9.5,12.3
					c0.9,1.2,1.4,1.9,1.7,2.4h0.1c0-0.3-0.2-1.5-0.2-2.5v-12.3h6.1v23.5L373.1,514.7L373.1,514.7z"/>
				<path class="st2" d="M383.5,514.7v-23.5h16v3.5h-8.8v6.4h7.7v3.4h-7.7v6.8h8.8v3.5L383.5,514.7L383.5,514.7z"/>
				<path class="st2" d="M418.4,514.7l-4.5-7c-0.9-1.3-1.9-2.5-3.5-3v10.1h-7.1v-22.6c2.4-0.8,5.9-1.3,9.3-1.3
					c7.8,0,12.2,2.3,12.2,7.1c0,3.1-2.7,5.3-7,6.2v0.1c1.2,0.9,2.4,2.1,3.2,3.1l5.4,7.3L418.4,514.7L418.4,514.7z M412.8,493.9
					c-0.9,0-1.7,0.1-2.4,0.3v8.2c0.5,0.1,1.2,0.1,1.9,0.1c3.6,0,5.6-2,5.6-4.4C417.9,495.3,416.3,493.9,412.8,493.9z"/>
				<path class="st2" d="M441.7,515c-8.8,0-14.2-4.4-14.2-12.1c0-7.4,6-12.1,14.9-12.1c3.4,0,6.1,0.5,8,1.3l-2,3.1
					c-1.2-0.4-3-0.8-5.3-0.8c-5.1,0-8.2,2.9-8.2,8.4c0,4.8,2.2,8.4,6.4,8.4c1,0,2-0.1,2.5-0.3v-6.9H440V501h10.7v12.7
					C448.8,514.5,445.7,515,441.7,515z"/>
				<path class="st2" d="M455.3,514.7v-23.5h7.2v23.5H455.3z"/>
				<path class="st2" d="M467.5,514.7v-23.5h16v3.5h-8.8v6.4h7.7v3.4h-7.7v6.8h8.8v3.5L467.5,514.7L467.5,514.7z"/>
				<path class="st2" d="M493.7,515c-3.4,0-6.4-0.5-8.2-1.3l1.7-3.4c1.1,0.5,3.2,0.9,5.1,0.9c2.9,0,4.6-1.3,4.6-2.9
					c0-4.6-11-3.7-11-11.1c0-3.9,4.1-6.3,10-6.3c3.1,0,5.7,0.6,7.2,1.3l-1.4,3c-1-0.5-2.6-0.8-4.4-0.8c-2.4,0-4.3,1.1-4.3,2.7
					c0,4.5,11.3,3.8,11.3,11.1C504.3,512.3,500,515,493.7,515z"/>
				<path class="st2" d="M531.9,514.7h-6.5l-9.4-23.5h7.7l4.4,14.6c0.4,1.5,0.5,2.6,0.6,3.3h0.1c0.1-0.6,0.3-1.7,0.8-3.3l4.8-14.6h7
					L531.9,514.7z"/>
				<path class="st2" d="M543.5,514.7v-23.5h7.2v23.5H543.5z"/>
				<path class="st2" d="M555.7,514.7v-23.5h16v3.5h-8.8v6.4h7.7v3.4h-7.7v6.8h8.8v3.5L555.7,514.7L555.7,514.7z"/>
				<path class="st2" d="M593.6,514.7L583,500.9c-0.8-1.1-1.3-2-1.5-2.5h-0.1c0,0.4,0.2,1.3,0.2,2.5v13.8h-6.2v-23.5h6.5l9.5,12.3
					c0.9,1.2,1.4,1.9,1.7,2.4h0.1c0-0.3-0.2-1.5-0.2-2.5v-12.3h6.1v23.5L593.6,514.7L593.6,514.7z"/>
				<path class="st2" d="M622.2,514.7l-10.6-13.8c-0.8-1.1-1.3-2-1.5-2.5H610c0,0.4,0.2,1.3,0.2,2.5v13.8h-6.2v-23.5h6.5l9.5,12.3
					c0.9,1.2,1.4,1.9,1.7,2.4h0.1c0-0.3-0.2-1.5-0.2-2.5v-12.3h6.1v23.5L622.2,514.7L622.2,514.7z"/>
				<path class="st2" d="M632.7,514.7v-23.5h16v3.5h-8.8v6.4h7.7v3.4h-7.7v6.8h8.8v3.5L632.7,514.7L632.7,514.7z"/>
			</g>
		</g>
	</g>
</g>
</svg>
