<?xml version="1.0" encoding="UTF-8" standalone="no"?>
<!-- Created with Inkscape (http://www.inkscape.org/) -->

<svg
   xmlns:dc="http://purl.org/dc/elements/1.1/"
   xmlns:cc="http://creativecommons.org/ns#"
   xmlns:rdf="http://www.w3.org/1999/02/22-rdf-syntax-ns#"
   xmlns:svg="http://www.w3.org/2000/svg"
   xmlns="http://www.w3.org/2000/svg"
   xmlns:sodipodi="http://sodipodi.sourceforge.net/DTD/sodipodi-0.dtd"
   xmlns:inkscape="http://www.inkscape.org/namespaces/inkscape"
   id="svg2"
   version="1.1"
   inkscape:version="0.91 r13725"
   xml:space="preserve"
   width="268"
   height="372"
   viewBox="0 0 447.59253 621.33875"
   sodipodi:docname="Logo SGDF 2019.svg"><metadata
     id="metadata8"><rdf:RDF><cc:Work
         rdf:about=""><dc:format>image/svg+xml</dc:format><dc:type
           rdf:resource="http://purl.org/dc/dcmitype/StillImage" /><dc:title></dc:title></cc:Work></rdf:RDF></metadata><defs
     id="defs6"><clipPath
       clipPathUnits="userSpaceOnUse"
       id="clipPath16"><path
         d="m 0,605.071 554.874,0 L 554.874,0 0,0 0,605.071 Z"
         id="path18"
         inkscape:connector-curvature="0" /></clipPath></defs><sodipodi:namedview
     pagecolor="#ffffff"
     bordercolor="#666666"
     borderopacity="1"
     objecttolerance="10"
     gridtolerance="10"
     guidetolerance="10"
     inkscape:pageopacity="0"
     inkscape:pageshadow="2"
     inkscape:window-width="1682"
     inkscape:window-height="977"
     id="namedview4"
     showgrid="false"
     inkscape:zoom="0.62162861"
     inkscape:cx="-531.668"
     inkscape:cy="378.16937"
     inkscape:window-x="0"
     inkscape:window-y="0"
     inkscape:window-maximized="0"
     inkscape:current-layer="g10" /><g
     id="g10"
     inkscape:groupmode="layer"
     inkscape:label="SGDF_logo_RVB_vertical"
     transform="matrix(1.25,0,0,-1.25,0,621.33879)"><g
       id="g12"
       transform="translate(-97.807596,-55.338508)"><g
         id="g14"
         clip-path="url(#clipPath16)"><g
           id="g20"
           transform="translate(372.3048,360.7309)"><path
             d="m 0,0 c -7.891,7.949 -14.043,14.546 -23.927,25.143 -2.967,3.181 -11.497,12.307 -11.497,12.307 l -1.578,-1.497 c -0.304,-0.289 -26.695,-27.808 -36.476,-36.877 -2.843,3.107 -9.242,10.128 -13.847,15.415 8.496,7.884 41.003,40.619 54.304,52.952 5.066,-5.595 21.809,-24.067 27.536,-30.104 C 2.343,29.084 12.797,16.699 16.59,12.165 9.861,7.125 2.827,1.943 0,0 m -96.408,43.684 c -4.436,3.606 -10.803,10.414 -13.691,13.172 l 13.815,14.825 13.241,-13.936 C -86.963,53.336 -93.58,46.308 -96.408,43.684 m -24.481,-44.608 -37.908,35.199 -30.893,-34.081 -15.677,13.146 46.76,53.513 53.76,-53.112 -16.042,-14.665 z m 13.83,133.638 10.713,10.582 21.83,-23.678 23.271,-29.725 -12.961,-12.525 -0.597,0.5 -31.631,34.086 -1.57,-1.905 c -0.939,-1.136 -21.909,-26.56 -28.48,-35.174 -3.04,2.209 -9.77,7.312 -16.626,13.887 l 36.051,43.952 z m -157.681,-171.575 340.703,0 0,220.094 -340.703,0 0,-220.094 z"
             style="fill:#003a5d;fill-opacity:1;fill-rule:nonzero;stroke:none"
             id="path22"
             inkscape:connector-curvature="0" /></g><g
           id="g24"
           transform="translate(105.8805,234.7558)"><path
             d="m 0,0 12.552,7.277 c 2.274,-5.276 6.186,-8.823 13.372,-8.823 6.912,0 8.64,2.73 8.64,5.185 0,3.911 -3.638,5.457 -13.188,8.095 -9.46,2.638 -18.738,7.186 -18.738,19.374 0,12.28 10.37,19.374 21.376,19.374 10.459,0 18.646,-5.002 23.285,-14.371 L 35.02,28.926 c -2.184,4.548 -5.185,7.367 -11.006,7.367 -4.548,0 -6.822,-2.274 -6.822,-4.821 0,-2.91 1.546,-4.911 11.46,-7.914 9.642,-2.911 20.466,-6.276 20.466,-19.738 0,-12.28 -9.824,-19.555 -23.65,-19.555 C 12.098,-15.735 3.547,-9.369 0,0"
             style="fill:#003a5d;fill-opacity:1;fill-rule:nonzero;stroke:none"
             id="path26"
             inkscape:connector-curvature="0" /></g><g
           id="g28"
           transform="translate(159.0817,252.1298)"><path
             d="m 0,0 c 0,18.737 13.917,33.108 33.108,33.108 11.552,0 21.74,-5.73 27.288,-14.735 L 47.844,11.096 c -2.821,4.912 -8.278,7.823 -14.736,7.823 -11.279,0 -18.555,-7.55 -18.555,-18.919 0,-11.37 7.276,-18.92 18.555,-18.92 6.458,0 12.007,2.91 14.736,7.822 l 12.552,-7.277 C 54.939,-27.38 44.751,-33.109 33.108,-33.109 13.917,-33.109 0,-18.739 0,0"
             style="fill:#003a5d;fill-opacity:1;fill-rule:nonzero;stroke:none"
             id="path30"
             inkscape:connector-curvature="0" /></g><g
           id="g32"
           transform="translate(274.3146,252.1298)"><path
             d="m 0,0 c 0,11.369 -8.187,18.919 -18.556,18.919 -10.369,0 -18.555,-7.55 -18.555,-18.919 0,-11.37 8.186,-18.92 18.555,-18.92 C -8.187,-18.92 0,-11.37 0,0 m -51.665,0 c 0,18.737 14.827,33.108 33.109,33.108 18.284,0 33.11,-14.371 33.11,-33.108 0,-18.739 -14.826,-33.109 -33.11,-33.109 -18.282,0 -33.109,14.37 -33.109,33.109"
             style="fill:#003a5d;fill-opacity:1;fill-rule:nonzero;stroke:none"
             id="path34"
             inkscape:connector-curvature="0" /></g><g
           id="g36"
           transform="translate(296.13,240.8495)"><path
             d="m 0,0 0,43.115 14.554,0 0,-41.841 c 0,-4.821 2.272,-8.914 10.006,-8.914 7.731,0 10.004,4.093 10.004,8.914 l 0,41.841 14.554,0 0,-43.115 C 49.118,-13.643 38.566,-21.829 24.56,-21.829 10.551,-21.829 0,-13.643 0,0"
             style="fill:#003a5d;fill-opacity:1;fill-rule:nonzero;stroke:none"
             id="path38"
             inkscape:connector-curvature="0" /></g><g
           id="g40"
           transform="translate(398.4474,269.9569)"><path
             d="m 0,0 -16.372,0 0,-49.663 -14.554,0 0,49.663 -16.373,0 0,14.008 L 0,14.008 0,0 Z"
             style="fill:#003a5d;fill-opacity:1;fill-rule:nonzero;stroke:none"
             id="path42"
             inkscape:connector-curvature="0" /></g><g
           id="g44"
           transform="translate(399.8029,234.7558)"><path
             d="m 0,0 12.552,7.277 c 2.274,-5.276 6.185,-8.823 13.371,-8.823 6.912,0 8.64,2.73 8.64,5.185 0,3.911 -3.638,5.457 -13.188,8.095 -9.46,2.638 -18.737,7.186 -18.737,19.374 0,12.28 10.369,19.374 21.375,19.374 10.46,0 18.646,-5.002 23.286,-14.371 L 35.02,28.926 c -2.185,4.548 -5.185,7.367 -11.007,7.367 -4.548,0 -6.822,-2.274 -6.822,-4.821 0,-2.91 1.546,-4.911 11.46,-7.914 9.643,-2.911 20.466,-6.276 20.466,-19.738 0,-12.28 -9.824,-19.555 -23.649,-19.555 C 12.098,-15.735 3.547,-9.369 0,0"
             style="fill:#003a5d;fill-opacity:1;fill-rule:nonzero;stroke:none"
             id="path46"
             inkscape:connector-curvature="0" /></g><g
           id="g48"
           transform="translate(172.0939,159.664)"><path
             d="m 0,0 c 0,-19.457 -13.547,-31.277 -31.367,-31.277 -20.001,0 -34.365,14.729 -34.365,33.005 0,18.455 14.636,33.183 33.366,33.183 12.182,0 22.456,-6.001 27.819,-14.546 l -12.364,-7.092 c -2.636,4.183 -8.363,7.455 -15.547,7.455 -10.728,0 -18.728,-7.909 -18.728,-19.092 0,-10.821 7.636,-18.73 20.001,-18.73 8.456,0 14.002,3.73 16.274,9.82 l -17.002,0 0,12.727 L 0,5.453 0,0 Z"
             style="fill:#003a5d;fill-opacity:1;fill-rule:nonzero;stroke:none"
             id="path50"
             inkscape:connector-curvature="0" /></g><g
           id="g52"
           transform="translate(184.5656,150.2079)"><path
             d="m 0,0 0,43.095 14.547,0 0,-41.822 c 0,-4.819 2.272,-8.911 9.999,-8.911 7.729,0 10.002,4.092 10.002,8.911 l 0,41.822 14.546,0 0,-43.095 c 0,-13.639 -10.546,-21.821 -24.548,-21.821 C 10.547,-21.821 0,-13.639 0,0"
             style="fill:#003a5d;fill-opacity:1;fill-rule:nonzero;stroke:none"
             id="path54"
             inkscape:connector-curvature="0" /></g><path
           d="m 263.856,129.66 -14.546,0 0,63.643 14.546,0 0,-63.643 z"
           style="fill:#003a5d;fill-opacity:1;fill-rule:nonzero;stroke:none"
           id="path56"
           inkscape:connector-curvature="0" /><g
           id="g58"
           transform="translate(322.3214,161.4823)"><path
             d="m 0,0 c 0,10.909 -6.91,17.818 -16.91,17.818 l -10.91,0 0,-35.639 10.91,0 C -6.91,-17.821 0,-10.912 0,0 m 14.002,0 c 0,-18.001 -13.366,-31.822 -30.912,-31.822 l -25.457,0 0,63.642 25.457,0 C 0.636,31.82 14.002,18.001 14.002,0"
             style="fill:#003a5d;fill-opacity:1;fill-rule:nonzero;stroke:none"
             id="path60"
             inkscape:connector-curvature="0" /></g><g
           id="g62"
           transform="translate(389.7052,143.661)"><path
             d="m 0,0 0,-14.001 -40.004,0 0,63.643 39.549,0 0,-14.002 -25.002,0 0,-10.546 22.728,0 0,-13.82 -22.728,0 L -25.457,0 0,0 Z"
             style="fill:#003a5d;fill-opacity:1;fill-rule:nonzero;stroke:none"
             id="path64"
             inkscape:connector-curvature="0" /></g><g
           id="g66"
           transform="translate(399.8986,144.1151)"><path
             d="m 0,0 12.547,7.274 c 2.272,-5.272 6.182,-8.819 13.364,-8.819 6.909,0 8.637,2.727 8.637,5.183 0,3.908 -3.636,5.456 -13.182,8.091 -9.456,2.638 -18.729,7.183 -18.729,19.366 0,12.273 10.365,19.365 21.366,19.365 10.455,0 18.638,-5.002 23.274,-14.366 L 35.003,28.913 c -2.183,4.546 -5.182,7.363 -11,7.363 -4.547,0 -6.819,-2.272 -6.819,-4.819 0,-2.909 1.545,-4.908 11.456,-7.908 9.636,-2.909 20.455,-6.273 20.455,-19.729 0,-12.274 -9.82,-19.549 -23.638,-19.549 C 12.093,-15.729 3.546,-9.361 0,0"
             style="fill:#003a5d;fill-opacity:1;fill-rule:nonzero;stroke:none"
             id="path68"
             inkscape:connector-curvature="0" /></g><g
           id="g70"
           transform="translate(136.6203,83.3651)"><path
             d="m 0,0 c 0,8.258 -5.526,14.621 -13.563,14.621 l -10.043,0 0,-29.243 10.043,0 C -5.526,-14.622 0,-8.261 0,0 m 4.968,0 c 0,-10.829 -7.76,-19.534 -18.531,-19.534 l -15.235,0 0,39.065 15.235,0 C -2.792,19.531 4.968,10.825 4.968,0"
             style="fill:#003a5d;fill-opacity:1;fill-rule:nonzero;stroke:none"
             id="path72"
             inkscape:connector-curvature="0" /></g><g
           id="g74"
           transform="translate(171.2296,68.7431)"><path
             d="m 0,0 0,-4.912 -23.327,0 0,39.065 23.05,0 0,-4.91 -17.859,0 0,-12.001 16.463,0 0,-4.854 -16.463,0 L -18.136,0 0,0 Z"
             style="fill:#003a5d;fill-opacity:1;fill-rule:nonzero;stroke:none"
             id="path76"
             inkscape:connector-curvature="0" /></g><g
           id="g78"
           transform="translate(196.6354,97.9862)"><path
             d="m 0,0 0,-12.67 16.576,0 0,-4.909 -16.576,0 0,-16.576 -5.189,0 0,39.065 22.492,0 0,-4.91 L 0,0 Z"
             style="fill:#003a5d;fill-opacity:1;fill-rule:nonzero;stroke:none"
             id="path80"
             inkscape:connector-curvature="0" /></g><g
           id="g82"
           transform="translate(225.4415,83.4755)"><path
             d="m 0,0 10.437,0 c 3.85,0 6.974,3.293 6.974,7.312 0,4.017 -3.124,7.254 -6.974,7.254 L 0,14.566 0,0 Z m 9.206,-4.688 -9.206,0 0,-14.957 -5.191,0 0,39.066 15.628,0 c 6.695,0 12.163,-5.413 12.163,-12.109 0,-5.136 -3.403,-9.657 -8.092,-11.329 l 9.209,-15.628 -5.747,0 -8.764,14.957 z"
             style="fill:#003a5d;fill-opacity:1;fill-rule:nonzero;stroke:none"
             id="path84"
             inkscape:connector-curvature="0" /></g><g
           id="g86"
           transform="translate(275.1202,77.4491)"><path
             d="M 0,0 -7.033,19.252 -14.008,0 0,0 Z m 1.786,-4.857 -17.579,0 -3.183,-8.761 -5.523,0 14.563,39.065 5.861,0 14.566,-39.065 -5.526,0 -3.179,8.761 z"
             style="fill:#003a5d;fill-opacity:1;fill-rule:nonzero;stroke:none"
             id="path88"
             inkscape:connector-curvature="0" /></g><g
           id="g90"
           transform="translate(319.7208,102.8964)"><path
             d="m 0,0 0,-39.065 -4.186,0 -20.089,29.187 0,-29.187 -5.193,0 0,39.065 4.186,0 L -5.189,-29.133 -5.189,0 0,0 Z"
             style="fill:#003a5d;fill-opacity:1;fill-rule:nonzero;stroke:none"
             id="path92"
             inkscape:connector-curvature="0" /></g><g
           id="g94"
           transform="translate(326.0343,83.3651)"><path
             d="m 0,0 c 0,11.271 8.484,20.258 20.428,20.258 7.198,0 13.559,-3.74 16.852,-9.487 L 32.76,8.146 C 30.529,12.443 25.785,15.235 20.428,15.235 11.274,15.235 5.134,8.595 5.134,0 c 0,-8.54 6.14,-15.181 15.294,-15.181 5.357,0 10.101,2.79 12.332,7.031 l 4.52,-2.566 c -3.234,-5.75 -9.598,-9.543 -16.852,-9.543 C 8.484,-20.259 0,-11.219 0,0"
             style="fill:#003a5d;fill-opacity:1;fill-rule:nonzero;stroke:none"
             id="path96"
             inkscape:connector-curvature="0" /></g><g
           id="g98"
           transform="translate(392.5128,68.7431)"><path
             d="m 0,0 0,-4.912 -23.327,0 0,39.065 23.051,0 0,-4.91 -17.859,0 0,-12.001 16.463,0 0,-4.854 -16.463,0 L -18.135,0 0,0 Z"
             style="fill:#003a5d;fill-opacity:1;fill-rule:nonzero;stroke:none"
             id="path100"
             inkscape:connector-curvature="0" /></g><g
           id="g102"
           transform="translate(417.3556,68.2841)"><path
             d="m 0,0 0,-4.413 23.313,0 0,4.413 -9.451,0 0,12.934 12.985,0 0,-9.398 4.413,0 0,23.314 -4.413,0 0,-9.503 -12.985,0 0,13.036 9.451,0 0,4.413 -23.313,0 0,-4.413 9.449,0 0,-13.036 -12.985,0 0,9.503 -4.413,0 0,-23.314 4.413,0 0,9.398 12.985,0 L 9.449,0 0,0 Z"
             style="fill:#0c3a5c;fill-opacity:1;fill-rule:nonzero;stroke:none"
             id="path104"
             inkscape:connector-curvature="0" /></g></g></g></g></svg>