<?xml version="1.0" encoding="iso-8859-1"?>
<!-- Generator: Adobe Illustrator 19.0.0, SVG Export Plug-In . SVG Version: 6.00 Build 0)  -->
<svg version="1.1" id="Layer_1" xmlns="http://www.w3.org/2000/svg" xmlns:xlink="http://www.w3.org/1999/xlink" x="0px" y="0px"
	 viewBox="0 0 512 512" style="enable-background:new 0 0 512 512;" xml:space="preserve">
<path style="fill:#E0E0E0;" d="M467.078,283.425l-64.518-64.518c-15.447-15.447-36.396-24.125-58.241-24.125H0v155.826h439.251
	c10.864,0,20.703-4.407,27.826-11.531c7.123-7.124,11.532-16.963,11.532-27.826C478.608,300.822,474.468,290.816,467.078,283.425z"
	/>
<path style="fill:#FFC853;" d="M0,294.957v55.652h439.251c10.864,0,20.703-4.407,27.826-11.531
	c7.123-7.124,11.532-16.963,11.532-27.826c0-5.677-1.234-11.224-3.546-16.295H0z"/>
<g>
	<path style="fill:#78B9EB;" d="M445.217,261.565H333.913c-36.883,0-66.783-29.9-66.783-66.783l0,0h77.188
		c21.845,0,42.795,8.678,58.241,24.125L445.217,261.565z"/>
	<rect x="178.092" y="228.174" style="fill:#78B9EB;" width="55.651" height="33.392"/>
	<rect x="89.046" y="228.174" style="fill:#78B9EB;" width="55.651" height="33.392"/>
	<rect y="228.174" style="fill:#78B9EB;" width="55.651" height="33.392"/>
</g>
<path style="fill:#DBA34B;" d="M0,328.348v22.261h439.251c10.864,0,20.703-4.407,27.826-11.531c3.106-3.106,5.696-6.73,7.629-10.73
	H0V328.348z"/>
<path style="fill:#FFFFFF;" d="M389.565,247.141h-32.392v-15.673h32.392V247.141z M341.5,247.141h-18.717v-15.673H341.5V247.141z"/>
<rect y="376.163" width="512" height="15.673"/>
<rect y="186.943" width="16.696" height="15.673"/>
<path d="M333.913,269.402h108.058l19.566,19.566c5.956,5.955,9.236,13.869,9.236,22.285c0,8.415-3.281,16.329-9.237,22.285
	c-5.955,5.956-13.869,9.236-22.285,9.236H111.304v15.673H439.25c12.601,0,24.452-4.91,33.369-13.826
	c8.917-8.916,13.826-20.766,13.826-33.368c0-12.601-4.91-24.452-13.826-33.368L408.1,213.365
	c-17.037-17.037-39.688-26.419-63.782-26.419h-85.024H33.391v15.673h226.317C263.637,240.095,295.415,269.402,333.913,269.402z
	 M344.318,202.619c19.907,0,38.623,7.752,52.699,21.829l29.28,29.28h-92.385c-29.846,0-54.583-22.297-58.428-51.109L344.318,202.619
	L344.318,202.619z"/>
<path d="M170.25,220.338v49.065h71.326v-49.065H170.25z M225.902,253.728h-39.979v-17.717h39.979V253.728z"/>
<path d="M81.207,220.338v49.065h71.326v-49.065H81.207z M136.86,253.728H96.881v-17.717h39.979V253.728z"/>
<polygon points="63.489,220.338 0,220.338 0,236.011 47.816,236.011 47.816,253.728 0,253.728 0,269.402 63.489,269.402 "/>
<rect x="33.391" y="342.768" width="55.651" height="15.673"/>
<rect y="342.768" width="16.696" height="15.673"/>
<rect x="66.783" y="309.384" width="100.174" height="15.673"/>
<rect x="33.391" y="309.384" width="16.696" height="15.673"/>
<rect x="189.221" y="153.558" width="100.174" height="15.673"/>
<rect x="155.826" y="153.558" width="16.695" height="15.673"/>
<rect x="133.569" y="120.163" width="66.783" height="15.673"/>
<rect x="100.174" y="120.163" width="16.696" height="15.673"/>
<rect x="355.725" y="287.117" width="15.673" height="15.673"/>
<rect x="418.419" y="287.117" width="15.673" height="15.673"/>
<rect x="387.072" y="287.117" width="15.673" height="15.673"/>
<rect x="324.378" y="287.117" width="15.673" height="15.673"/>
<g>
</g>
<g>
</g>
<g>
</g>
<g>
</g>
<g>
</g>
<g>
</g>
<g>
</g>
<g>
</g>
<g>
</g>
<g>
</g>
<g>
</g>
<g>
</g>
<g>
</g>
<g>
</g>
<g>
</g>
</svg>
